<?xml version="1.0" standalone="no"?>
<!DOCTYPE svg PUBLIC "-//W3C//DTD SVG 20010904//EN"
 "http://www.w3.org/TR/2001/REC-SVG-20010904/DTD/svg10.dtd">
<svg version="1.0" xmlns="http://www.w3.org/2000/svg"
 width="3709.000000pt" height="1538.000000pt" viewBox="0 0 3709.000000 1538.000000"
 preserveAspectRatio="xMidYMid meet">
<metadata>
Created by potrace 1.15, written by Peter Selinger 2001-2017
</metadata>
<g transform="translate(0.000000,1538.000000) scale(0.100000,-0.100000)"
fill="#000000" stroke="none">
<path d="M28979 14630 c-42 -5 -105 -18 -140 -28 -142 -43 -166 -46 -195 -23
-40 31 -88 37 -112 13 -10 -10 -37 -22 -58 -26 -56 -11 -258 -79 -334 -114
-36 -16 -99 -40 -140 -52 -41 -12 -95 -32 -120 -45 -25 -12 -56 -26 -70 -30
-14 -4 -78 -61 -143 -127 -88 -88 -125 -134 -143 -174 -13 -29 -37 -72 -53
-95 -17 -23 -35 -64 -41 -97 -6 -31 -18 -82 -25 -112 -27 -105 -25 -294 5
-435 6 -27 13 -75 16 -105 3 -30 13 -64 23 -75 29 -34 91 -142 91 -160 0 -9
-5 -26 -11 -37 -18 -33 3 -64 47 -73 29 -5 41 -3 50 9 6 9 15 16 19 16 10 0
74 -47 157 -114 63 -51 129 -81 213 -98 27 -5 57 -14 66 -18 52 -28 181 -51
346 -60 232 -14 334 -33 378 -72 11 -9 37 -24 57 -33 21 -8 42 -24 48 -35 6
-10 29 -32 53 -49 32 -22 48 -43 66 -87 14 -33 34 -70 45 -84 12 -14 28 -43
37 -65 22 -53 59 -205 59 -241 0 -16 7 -54 16 -84 19 -69 53 -281 70 -440 3
-30 12 -69 20 -87 8 -17 14 -57 14 -90 0 -32 5 -85 12 -118 6 -33 12 -87 12
-120 1 -33 7 -71 13 -85 9 -22 23 -146 28 -250 1 -19 4 -51 8 -70 3 -19 9
-101 11 -181 3 -80 8 -153 11 -161 10 -27 29 -293 40 -578 11 -260 14 -316 25
-500 6 -102 11 -203 10 -225 0 -22 4 -78 9 -125 6 -47 13 -198 16 -336 2 -139
9 -264 15 -279 15 -40 12 -77 -10 -110 -27 -41 -25 -56 10 -87 l30 -26 0 -121
c0 -79 -4 -128 -12 -141 -10 -16 -10 -24 2 -42 11 -17 17 -67 22 -178 4 -85
11 -195 16 -245 5 -52 5 -104 0 -122 -6 -21 -5 -48 3 -75 6 -24 15 -128 19
-233 4 -111 12 -202 20 -220 7 -16 14 -66 16 -110 5 -105 19 -229 28 -243 9
-15 39 -265 38 -317 -1 -22 4 -50 10 -63 8 -15 9 -31 2 -50 -8 -23 -23 -32
-99 -58 -50 -17 -130 -45 -178 -62 -57 -20 -98 -29 -117 -26 -16 4 -37 0 -51
-9 -13 -8 -52 -17 -85 -21 -34 -3 -88 -15 -120 -27 -69 -26 -154 -76 -154 -91
0 -9 -30 -63 -126 -223 -29 -49 -61 -81 -95 -95 -16 -7 -29 -20 -29 -30 0 -21
31 -50 52 -50 13 0 18 -15 23 -64 4 -36 4 -70 0 -76 -11 -18 25 -198 70 -353
17 -57 91 -175 137 -217 18 -17 68 -49 110 -71 l78 -41 -6 -37 c-5 -33 -3 -38
20 -49 29 -13 51 -8 82 20 20 18 28 19 100 8 44 -7 115 -16 159 -20 44 -5 99
-13 121 -19 37 -9 63 -11 164 -10 14 0 68 -3 120 -7 146 -11 620 -5 657 8 24
9 48 9 96 0 89 -16 261 -15 319 3 31 9 96 14 193 14 80 0 150 3 156 7 6 3 59
12 117 20 59 7 127 18 152 24 25 6 88 15 140 20 52 4 106 11 120 14 14 4 84
10 155 15 97 7 149 16 205 36 41 14 89 29 105 32 59 11 190 121 201 170 3 15
12 37 19 48 34 57 58 210 56 370 -2 190 -32 420 -58 447 -7 6 -13 32 -13 56 0
83 -85 281 -169 394 -76 102 -167 157 -276 167 -79 7 -237 7 -435 1 -150 -4
-161 -1 -241 65 -72 61 -102 149 -133 395 -15 119 -23 309 -31 757 -3 145 -10
284 -16 310 -7 29 -11 146 -11 291 0 133 -4 259 -9 280 -17 76 -38 350 -38
500 -1 85 -4 159 -8 165 -4 6 -10 72 -14 147 -4 74 -15 234 -24 355 -9 121
-13 235 -10 254 7 38 -10 221 -27 291 -22 89 -45 307 -58 535 -12 216 -38 514
-49 555 -5 19 -19 69 -30 110 -13 50 -22 121 -25 212 -4 85 -11 149 -20 170
-15 34 -42 137 -58 223 -5 28 -12 102 -16 165 -5 75 -13 125 -23 145 -9 17
-20 57 -24 90 -4 33 -13 72 -21 86 -7 15 -18 69 -24 120 -6 52 -16 110 -21
130 -5 20 -9 49 -9 65 0 38 -18 137 -38 204 -15 54 -23 142 -41 445 -5 83 -14
173 -20 200 -6 28 -10 61 -11 75 0 81 -12 164 -26 197 -9 21 -21 63 -26 93 -5
30 -13 82 -18 115 -6 33 -14 83 -18 110 -5 28 -19 69 -31 91 -12 23 -25 59
-28 80 -3 22 -9 41 -12 44 -4 3 -23 43 -44 90 -21 47 -43 95 -50 106 -28 51
-100 135 -127 149 -16 8 -35 23 -42 34 -7 10 -24 22 -38 26 -14 4 -34 15 -45
25 -24 22 -206 99 -255 109 -19 4 -66 2 -105 -4 -97 -14 -259 -12 -390 4 -149
18 -236 21 -326 11z m210 -95 c53 -9 117 -22 142 -30 60 -19 115 -19 169 0 23
8 56 15 73 15 17 0 45 5 62 11 34 13 44 9 209 -72 33 -16 70 -29 83 -29 14 0
63 -17 110 -37 71 -32 88 -43 99 -70 8 -18 27 -47 42 -65 43 -50 70 -99 91
-164 10 -33 28 -75 40 -95 11 -19 25 -59 31 -88 5 -29 18 -65 29 -79 11 -17
21 -53 25 -97 12 -126 15 -152 26 -179 5 -15 10 -40 10 -55 0 -16 7 -34 15
-41 7 -6 16 -30 19 -53 3 -23 10 -81 17 -128 6 -48 12 -154 14 -235 1 -82 8
-174 14 -204 6 -30 11 -75 10 -100 -2 -59 18 -180 42 -253 11 -32 22 -95 25
-140 3 -45 13 -111 23 -147 29 -103 41 -158 41 -191 0 -16 11 -70 25 -119 14
-49 25 -115 25 -147 0 -32 7 -94 16 -138 8 -44 22 -116 31 -160 8 -44 21 -92
29 -106 8 -15 14 -38 13 -50 -1 -58 38 -374 64 -514 21 -112 36 -281 43 -480
9 -240 6 -215 45 -425 27 -145 39 -284 44 -495 2 -126 7 -241 10 -255 3 -15
10 -93 15 -176 6 -82 14 -189 20 -239 5 -49 12 -155 15 -235 4 -134 16 -315
31 -500 3 -41 7 -159 9 -261 1 -103 8 -202 14 -221 7 -20 13 -150 16 -328 9
-620 13 -716 29 -820 9 -58 23 -121 30 -140 8 -19 21 -55 30 -80 28 -80 146
-186 224 -203 26 -6 63 -9 82 -8 19 2 141 3 270 4 l235 1 77 -38 c59 -28 89
-51 127 -95 28 -32 51 -62 51 -66 0 -3 13 -25 29 -48 43 -64 69 -132 88 -237
20 -107 20 -233 2 -288 -7 -20 -14 -53 -15 -72 -8 -143 -94 -261 -205 -280
-30 -5 -85 -17 -124 -26 -38 -9 -95 -18 -125 -20 -128 -7 -209 -14 -275 -25
-81 -13 -563 -31 -776 -30 -119 1 -149 -2 -159 -14 -15 -18 -97 -20 -135 -3
-22 10 -32 9 -61 -7 -22 -12 -56 -19 -92 -19 -85 -1 -384 24 -401 34 -8 4 -15
21 -16 37 0 25 -3 28 -30 25 -16 -2 -47 -12 -68 -23 -42 -21 -82 -24 -159 -9
-151 30 -279 70 -365 115 -88 45 -103 57 -112 92 -5 18 -19 34 -40 44 -44 21
-62 54 -55 101 7 43 -3 65 -36 81 -26 13 -64 101 -55 127 3 8 27 42 53 76 51
67 123 126 188 154 23 10 45 24 49 30 13 20 88 50 129 50 24 0 58 11 91 30 28
16 82 36 119 44 37 7 73 21 79 29 7 9 45 19 98 25 47 6 101 18 120 26 19 9 59
23 89 31 36 10 62 25 74 41 16 23 17 32 6 82 -17 84 -11 124 23 140 38 19 37
57 -4 80 l-30 17 2 210 c1 130 -2 220 -8 235 -6 14 -14 84 -18 155 -4 72 -12
153 -19 180 -8 32 -10 61 -4 80 5 18 5 44 -1 65 -6 19 -13 69 -15 110 -3 41
-10 122 -16 180 -5 58 -12 141 -15 185 -3 44 -10 95 -14 113 -6 20 -6 46 1 68
5 20 7 46 3 58 -4 11 -11 75 -16 141 -14 203 -26 322 -32 332 -3 5 -7 54 -8
109 0 54 -5 113 -9 129 -12 43 -41 316 -51 488 -7 121 -7 153 5 175 13 25 12
30 -9 54 -19 22 -24 44 -30 120 -9 103 -10 118 -19 198 -17 155 -30 302 -32
360 -7 182 -14 271 -20 281 -8 13 -26 194 -25 254 0 22 -7 64 -15 93 -8 29
-13 56 -10 60 6 10 -31 579 -45 692 -6 47 -17 111 -25 142 -18 75 -18 115 2
126 13 7 12 14 -9 54 -18 35 -26 69 -32 149 -4 57 -8 114 -7 127 2 40 2 46 -8
127 -5 44 -14 163 -19 265 -15 276 -31 463 -43 478 -6 7 -14 29 -18 50 -8 36
-66 185 -98 250 -18 38 -81 74 -152 88 -55 10 -507 10 -606 -1 -50 -5 -77 -4
-93 5 -18 9 -25 9 -31 0 -11 -18 -91 -15 -130 5 -19 10 -66 22 -105 27 -141
16 -234 41 -315 83 -41 21 -77 63 -93 108 -9 23 -25 67 -36 98 -16 46 -18 63
-10 93 8 30 7 41 -4 54 -11 13 -13 31 -6 82 15 120 18 127 79 157 30 15 56 33
58 40 2 6 -6 21 -17 32 -12 12 -21 27 -20 34 0 6 20 39 45 72 24 33 58 83 75
112 17 29 40 55 52 59 12 4 38 25 58 48 20 23 66 59 103 80 36 21 66 42 66 45
0 10 67 38 110 46 19 4 42 15 50 26 26 32 235 93 440 127 78 13 74 14 179 -3z
m-929 -164 c0 -24 -50 -62 -105 -80 -22 -7 -61 -27 -87 -43 -26 -16 -68 -36
-93 -43 -25 -8 -69 -30 -98 -49 -45 -30 -157 -86 -172 -86 -33 0 66 104 130
137 17 8 39 23 50 33 11 10 38 23 60 30 22 7 74 27 115 44 197 85 200 86 200
57z m-242 -268 c-2 -10 -17 -27 -33 -37 -28 -19 -45 -47 -89 -149 -9 -22 -27
-42 -43 -49 -16 -7 -75 -43 -132 -80 -189 -122 -234 -115 -182 32 17 48 25 58
70 82 28 15 69 41 92 58 23 16 47 30 53 30 6 0 27 10 46 22 78 50 186 107 203
108 12 0 17 -6 15 -17z m-195 -380 c4 -3 0 -17 -9 -31 -12 -18 -15 -37 -10
-73 7 -48 6 -49 -34 -76 -23 -16 -63 -46 -90 -68 -100 -82 -152 -117 -159
-109 -5 5 -11 55 -14 112 l-5 102 50 -6 50 -7 56 55 c85 83 146 120 165 101z
m9 -324 c9 -72 35 -149 60 -176 32 -34 19 -55 -57 -93 -39 -20 -90 -50 -114
-68 -24 -18 -49 -32 -55 -32 -24 0 -76 67 -76 97 0 18 -6 33 -15 37 -23 9 -18
46 10 68 19 15 24 25 19 44 -4 15 -2 24 6 24 6 0 23 14 38 31 32 39 153 129
167 125 6 -1 13 -27 17 -57z m206 -318 c21 -11 64 -27 97 -36 85 -24 94 -36
53 -66 -49 -37 -124 -79 -141 -79 -8 0 -41 -16 -73 -35 -32 -19 -62 -35 -66
-35 -5 0 -21 13 -36 29 -15 15 -49 39 -75 52 -29 14 -47 29 -45 37 3 15 139
105 176 117 11 3 23 12 26 20 7 20 40 19 84 -4z m1099 -91 c1 -9 -27 -36 -65
-62 -140 -99 -247 -168 -262 -168 -8 0 -33 -23 -55 -50 -35 -44 -44 -49 -70
-45 -16 2 -79 9 -140 15 -115 12 -133 17 -97 27 12 3 22 13 22 23 0 21 13 33
131 113 166 112 243 145 369 157 121 11 164 8 167 -10z m230 -15 c12 -8 31
-41 43 -72 12 -32 26 -63 32 -70 18 -22 1 -39 -61 -63 -33 -12 -66 -29 -72
-37 -18 -21 -168 -136 -234 -178 -65 -41 -93 -41 -115 0 -7 14 -18 25 -24 25
-26 0 -96 34 -96 47 0 15 78 93 92 93 4 0 16 8 26 18 19 19 65 52 196 139 43
29 86 59 95 67 20 18 72 46 86 46 6 0 20 -7 32 -15z m-767 -8 c0 -7 -25 -28
-55 -47 -30 -19 -70 -45 -88 -57 -17 -12 -47 -29 -64 -37 -21 -10 -39 -28 -49
-53 -27 -63 -31 -68 -50 -65 -11 2 -44 7 -74 11 -81 11 -164 43 -168 63 -3 14
30 34 145 89 81 40 168 80 193 90 56 21 210 26 210 6z m888 -279 c11 -15 22
-91 28 -200 l4 -78 -34 -14 c-19 -8 -56 -31 -83 -51 -112 -84 -158 -115 -172
-115 -18 0 -61 39 -61 55 0 7 -14 39 -31 72 -29 57 -30 62 -16 94 15 37 68 84
162 144 33 21 83 53 110 71 54 36 77 41 93 22z m45 -455 c3 -32 10 -98 16
-148 16 -126 18 -154 12 -163 -3 -5 -37 -24 -76 -42 -38 -19 -81 -41 -95 -51
-47 -33 -69 -33 -81 -2 -6 15 -12 39 -13 53 -2 14 -6 32 -9 40 -3 8 -10 38
-15 65 -5 28 -13 57 -16 66 -5 11 2 27 19 45 15 16 33 40 40 54 23 44 158 138
202 139 7 1 13 -22 16 -56z m46 -505 c7 -40 16 -93 22 -117 10 -46 7 -53 -28
-75 -10 -6 -34 -20 -52 -31 -19 -11 -56 -35 -83 -53 -27 -19 -52 -31 -56 -28
-16 17 -35 87 -37 136 0 30 -5 63 -9 72 -16 36 148 166 211 168 19 0 22 -8 32
-72z m29 -315 c6 -10 13 -38 17 -63 4 -25 11 -61 17 -80 13 -48 -10 -104 -52
-128 -17 -9 -54 -34 -82 -54 -27 -21 -54 -38 -59 -38 -13 0 -30 45 -41 110
-19 105 -21 100 76 188 49 45 95 82 102 82 7 0 17 -8 22 -17z m56 -405 c7 -43
16 -112 23 -169 5 -44 4 -48 -32 -75 -21 -16 -51 -44 -68 -62 -32 -34 -87 -72
-105 -72 -5 0 -13 35 -17 78 -4 42 -11 99 -16 126 -8 45 -7 50 19 76 15 16 36
38 47 50 23 25 114 80 132 80 7 0 14 -15 17 -32z m31 -375 c4 -10 9 -51 10
-91 2 -68 0 -74 -25 -95 -15 -12 -44 -43 -65 -69 -45 -55 -99 -88 -116 -71 -6
6 -14 43 -17 81 l-5 70 47 49 c149 153 157 159 171 126z m39 -331 c3 -5 8 -56
10 -113 l6 -105 -43 -40 c-64 -61 -157 -134 -172 -134 -21 0 -25 25 -25 140 0
88 3 112 16 122 9 7 30 26 47 41 17 16 47 40 68 53 20 13 40 28 44 34 7 12 42
13 49 2z m13 -394 c12 -20 32 -100 33 -132 0 -38 -53 -117 -126 -187 -62 -58
-101 -85 -112 -75 -3 4 -9 59 -12 124 l-6 117 31 33 c30 32 163 130 177 131 4
1 10 -5 15 -11z m57 -399 c3 -34 6 -85 6 -113 0 -28 4 -67 9 -86 5 -19 12 -59
15 -88 5 -51 5 -53 -29 -70 -120 -61 -182 -96 -196 -108 -23 -21 -46 -17 -52
9 -2 12 -5 89 -6 170 l-2 149 43 41 c24 23 67 60 96 82 30 22 58 48 63 58 5 9
18 17 28 17 15 0 19 -11 25 -61z m55 -618 l14 -154 -29 -24 c-152 -124 -234
-183 -251 -183 -15 0 -14 -8 -17 155 -1 72 -6 142 -10 158 -10 33 7 57 40 57
17 0 29 10 41 36 14 28 35 46 88 75 109 60 107 62 124 -120z m24 -308 c3 -5 8
-54 12 -110 l7 -102 -34 -17 c-18 -9 -62 -43 -98 -74 -73 -64 -148 -120 -162
-120 -5 0 -9 33 -8 73 1 39 -2 89 -6 111 -7 37 -5 40 61 103 37 35 87 73 110
84 24 11 51 29 61 40 17 19 49 26 57 12z m33 -385 c-3 -15 1 -46 9 -68 20 -57
11 -74 -36 -66 -44 7 -59 -10 -59 -63 0 -24 -10 -37 -47 -67 -27 -21 -67 -56
-90 -77 -58 -55 -71 -47 -71 46 0 41 -3 88 -7 105 -5 26 -2 36 21 58 36 32
158 114 172 114 6 0 20 12 32 28 40 51 87 45 76 -10z m34 -303 c8 -10 11 -31
7 -60 -4 -25 -2 -57 3 -71 8 -21 7 -31 -6 -45 -10 -11 -22 -19 -27 -19 -5 0
-28 -15 -51 -33 -72 -58 -205 -147 -219 -147 -10 0 -16 19 -20 68 -5 60 -3 70
19 99 14 18 51 50 82 72 31 21 68 51 82 66 27 30 99 85 110 85 4 0 13 -7 20
-15z m25 -367 c4 -35 9 -85 10 -113 2 -27 7 -68 10 -90 3 -22 2 -44 -2 -50 -9
-12 -53 -38 -103 -61 -19 -9 -48 -27 -63 -40 -16 -13 -32 -24 -37 -24 -5 0
-32 -14 -60 -32 -64 -40 -75 -31 -72 55 1 34 -3 91 -9 126 l-10 64 58 60 c32
32 78 69 103 82 25 13 62 37 84 54 21 17 49 31 61 31 20 0 23 -7 30 -62z m36
-375 c1 -10 1 -46 -1 -80 -1 -35 4 -86 10 -115 12 -49 12 -52 -10 -70 -12 -10
-39 -22 -60 -28 -21 -6 -62 -29 -91 -53 -82 -66 -143 -107 -160 -107 -24 0
-29 21 -29 122 l0 91 41 46 c23 25 49 55 59 66 9 11 51 37 92 57 41 21 85 49
98 63 27 29 49 32 51 8z m18 -396 c16 -42 28 -169 17 -172 -59 -16 -121 -47
-203 -101 -53 -35 -101 -60 -105 -56 -5 5 -13 33 -17 62 l-9 54 52 58 c28 32
56 58 63 58 7 0 23 11 35 25 26 28 126 92 146 94 7 1 16 -9 21 -22z m31 -311
c6 -18 12 -64 13 -102 l2 -68 -42 -10 c-23 -6 -50 -18 -60 -27 -27 -24 -145
-96 -170 -103 -16 -5 -23 -2 -28 13 -12 38 -24 129 -19 148 3 10 46 45 97 77
51 32 103 66 116 75 70 47 74 47 91 -3z m4 -318 c13 -51 4 -64 -64 -97 -34
-17 -79 -46 -100 -65 -41 -37 -86 -55 -99 -40 -5 5 -11 21 -15 36 -5 21 -2 30
15 39 12 6 36 26 54 43 18 18 47 40 66 49 19 9 50 30 69 46 44 38 63 36 74
-11z m4 -199 c3 -34 0 -38 -40 -56 -24 -11 -65 -25 -92 -32 -79 -19 -75 -2 13
58 31 21 63 46 70 55 23 27 46 15 49 -25z m-938 -434 c0 -30 -38 -55 -85 -55
-56 0 -52 19 8 49 50 25 77 27 77 6z m-147 -234 c-2 -10 6 -49 19 -87 13 -38
23 -76 21 -85 -2 -9 -22 -25 -45 -35 -22 -10 -60 -32 -85 -50 -61 -43 -76 -36
-68 30 4 29 14 81 24 116 14 57 22 69 70 108 53 43 75 44 64 3z m120 -317 c14
-20 23 -43 20 -50 -3 -8 -36 -35 -73 -60 -38 -25 -87 -66 -109 -91 -44 -48
-59 -50 -78 -12 -27 52 -3 112 73 180 90 80 127 88 167 33z m3333 -190 c-3 -9
-21 -14 -45 -14 -36 0 -40 -3 -59 -42 -12 -25 -55 -75 -104 -120 -99 -92 -138
-130 -156 -152 -19 -23 -115 -19 -120 6 -7 35 180 189 266 219 18 6 40 25 51
45 11 19 31 38 43 43 29 11 57 43 94 106 l29 50 3 -64 c2 -35 1 -70 -2 -77z
m-3196 16 c28 -17 67 -37 86 -45 30 -12 34 -17 25 -34 -6 -10 -17 -21 -24 -24
-32 -12 -175 -130 -207 -171 -19 -24 -43 -46 -54 -49 -27 -8 -136 97 -136 130
0 37 34 79 103 125 34 23 77 54 95 70 18 15 39 28 47 28 8 0 37 -14 65 -30z
m290 -132 c-1 -38 -21 -64 -103 -132 -51 -41 -105 -89 -122 -105 -16 -17 -45
-34 -63 -37 -37 -8 -82 11 -82 33 0 25 93 113 160 150 36 20 87 51 115 70 50
33 95 43 95 21z m2079 -34 c8 -8 -31 -42 -55 -48 -13 -4 -24 -11 -24 -16 0 -6
-12 -24 -27 -40 -16 -17 -34 -37 -41 -45 -7 -8 -20 -15 -30 -15 -9 -1 -39 -30
-66 -65 -28 -35 -60 -66 -73 -70 -31 -7 -133 6 -133 17 0 11 106 118 116 118
3 0 22 14 42 31 20 18 69 47 109 67 40 19 73 38 73 42 0 24 33 40 68 34 21 -4
39 -8 41 -10z m-1901 -16 c-2 -15 -11 -24 -25 -26 -19 -3 -23 1 -23 22 0 21 5
26 26 26 21 0 25 -4 22 -22z m2092 4 c0 -10 -81 -104 -136 -157 -23 -22 -43
-49 -45 -60 -4 -17 -12 -20 -67 -20 -34 0 -62 2 -62 5 0 13 102 103 190 169
89 66 120 82 120 63z m-662 -24 c2 -11 -8 -23 -27 -32 -41 -22 -58 -20 -72 6
-10 18 -8 24 7 35 26 19 88 13 92 -9z m-1144 6 c28 -11 19 -48 -16 -69 -18
-10 -62 -49 -98 -86 -36 -37 -87 -84 -114 -104 -44 -33 -54 -37 -94 -32 -100
11 -94 57 20 150 46 37 87 71 91 76 69 75 62 71 130 71 36 0 72 -3 81 -6z
m756 -14 c0 -11 -17 -29 -85 -90 -22 -20 -71 -71 -108 -113 -65 -74 -85 -85
-121 -71 -23 9 -20 41 6 55 12 6 51 39 88 73 137 126 174 154 203 155 9 1 17
-4 17 -9z m-489 -10 c10 -6 19 -17 19 -25 0 -7 -42 -56 -92 -107 -51 -52 -106
-109 -121 -128 -27 -32 -29 -33 -90 -27 -69 6 -97 15 -97 28 0 10 101 112 142
144 14 11 47 37 72 59 42 35 102 64 134 66 7 0 22 -5 33 -10z m659 -17 c0 -9
-11 -31 -25 -49 -14 -18 -25 -40 -25 -49 0 -8 -8 -18 -17 -22 -10 -3 -34 -19
-54 -35 -20 -15 -46 -28 -57 -28 -10 0 -31 -9 -45 -20 -37 -30 -51 -25 -31 10
30 49 218 210 247 210 4 0 7 -7 7 -17z m-410 -3 c0 -14 -75 -87 -97 -94 -22
-7 -125 -111 -142 -143 -13 -25 -40 -29 -73 -12 -19 10 -18 13 23 56 24 25 67
63 94 84 28 21 73 57 100 78 47 38 95 53 95 31z m1790 -29 c0 -5 -7 -11 -14
-14 -10 -4 -13 -1 -9 9 6 15 23 19 23 5z m-2700 -16 c0 -18 -38 -59 -71 -75
-20 -11 -51 -36 -67 -56 -25 -30 -35 -35 -56 -30 -39 10 -32 30 27 73 90 66
167 106 167 88z m2218 -72 c2 -15 -4 -23 -18 -28 -33 -11 -48 10 -25 35 22 24
39 21 43 -7z m-818 -87 c0 -3 -4 -8 -10 -11 -5 -3 -10 -1 -10 4 0 6 5 11 10
11 6 0 10 -2 10 -4z"/>
<path d="M28611 13144 c0 -11 3 -14 6 -6 3 7 2 16 -1 19 -3 4 -6 -2 -5 -13z"/>
<path d="M5365 14124 c-16 -2 -52 -8 -80 -14 -48 -9 -111 -18 -280 -40 -72 -9
-218 -43 -360 -84 -81 -23 -155 -61 -235 -120 -41 -31 -94 -65 -117 -77 -32
-14 -43 -26 -43 -42 0 -31 -47 -176 -67 -206 -9 -15 -19 -59 -23 -103 -7 -73
-9 -80 -49 -123 -45 -49 -45 -61 2 -112 16 -18 18 -30 13 -65 -20 -127 -30
-275 -29 -458 0 -187 3 -213 25 -295 14 -50 37 -108 52 -129 14 -21 26 -43 26
-48 0 -6 9 -22 20 -36 39 -50 90 -127 99 -148 17 -39 147 -131 225 -159 33
-11 79 -31 101 -42 22 -12 60 -26 85 -33 25 -7 61 -20 80 -29 19 -10 76 -23
125 -30 50 -7 117 -21 150 -31 82 -25 158 -40 208 -40 23 0 62 -9 86 -20 24
-11 57 -20 75 -20 38 -1 58 -12 134 -75 74 -62 97 -97 82 -124 -19 -36 -12
-71 16 -81 14 -6 33 -9 41 -8 10 2 20 -11 28 -37 6 -22 19 -54 28 -72 11 -21
17 -56 17 -99 0 -64 20 -177 42 -239 6 -16 14 -52 18 -80 4 -27 10 -57 13 -65
5 -14 14 -163 38 -660 15 -290 25 -429 39 -530 7 -47 12 -94 12 -105 0 -11 4
-71 10 -133 l9 -113 -25 -26 c-34 -34 -35 -79 -2 -95 14 -6 28 -18 32 -27 4
-9 9 -85 12 -168 l4 -153 -31 -17 c-55 -31 -51 -77 8 -106 l26 -12 9 -185 c11
-237 11 -250 7 -405 -1 -71 1 -197 5 -278 7 -143 6 -148 -15 -168 -25 -24 -25
-21 -2 -67 12 -25 22 -83 31 -175 l13 -139 -31 -24 c-27 -22 -30 -29 -25 -62
3 -20 15 -47 27 -60 18 -21 21 -37 23 -154 2 -81 -1 -136 -8 -144 -6 -7 -24
-16 -40 -19 -29 -7 -99 -78 -99 -101 0 -7 12 -22 26 -33 21 -16 37 -20 70 -17
l43 4 6 -42 c4 -24 4 -76 1 -117 -4 -41 -9 -155 -12 -254 -5 -163 -7 -182 -26
-202 -21 -23 -19 -32 16 -71 19 -21 21 -38 24 -190 2 -112 -1 -179 -9 -205
-10 -30 -10 -42 1 -62 8 -16 10 -29 4 -35 -5 -5 -56 -22 -114 -39 -103 -30
-202 -64 -290 -100 -32 -14 -60 -17 -95 -14 -40 4 -58 1 -85 -16 -19 -11 -42
-21 -50 -21 -8 0 -65 -25 -126 -55 -87 -43 -122 -66 -162 -110 -28 -30 -58
-55 -67 -55 -8 0 -15 -4 -15 -10 0 -5 -13 -25 -30 -43 -25 -29 -42 -68 -66
-154 -1 -6 -22 -20 -46 -31 -83 -37 -98 -80 -41 -117 39 -24 58 -65 48 -102
-14 -54 -6 -475 10 -536 19 -75 19 -82 -6 -117 -29 -39 -19 -73 30 -102 24
-14 48 -40 66 -72 50 -93 173 -196 231 -196 29 0 317 -82 372 -106 18 -8 40
-14 48 -14 9 0 30 -6 47 -13 98 -42 250 -67 532 -87 83 -6 166 -15 185 -20 42
-11 237 -12 959 -6 417 4 533 8 570 20 25 8 100 29 166 46 66 18 149 41 184
51 35 11 80 19 100 19 98 0 292 140 395 285 53 74 156 269 156 295 0 10 9 34
19 52 11 18 25 62 30 98 6 36 15 80 21 99 5 19 7 38 4 42 -4 8 12 108 38 226
8 40 8 59 -2 83 -10 23 -10 40 -2 68 6 20 15 62 22 92 10 49 9 56 -9 70 -15
12 -20 33 -26 100 -3 48 -2 96 3 110 7 19 3 43 -19 103 -37 104 -95 158 -265
248 -44 23 -86 47 -94 53 -48 38 -129 62 -255 76 -67 8 -129 21 -160 35 -48
21 -235 55 -303 55 -18 0 -49 11 -70 25 -43 28 -132 127 -132 146 0 6 -9 37
-20 68 -22 62 -39 268 -45 531 -2 85 -9 211 -16 280 -6 69 -14 161 -16 205 -5
124 -30 331 -42 354 -6 11 -11 35 -11 54 0 18 -4 58 -9 88 -6 30 -15 105 -21
168 -12 129 -15 121 71 216 48 52 54 63 55 104 1 48 31 142 59 185 9 13 22 47
30 75 7 28 34 81 59 120 25 38 46 74 46 80 0 27 114 130 187 170 10 5 101 25
203 46 102 20 203 40 225 45 22 4 55 6 73 3 18 -3 59 -1 90 5 31 6 91 16 132
22 41 6 110 20 153 31 102 25 159 24 214 -3 l44 -22 43 23 c39 22 50 23 117
17 144 -15 165 -16 272 -16 120 -1 153 -9 166 -43 16 -40 36 -50 91 -43 79 11
91 1 219 -168 28 -36 56 -76 62 -89 7 -12 23 -35 37 -52 25 -31 84 -150 95
-196 4 -14 20 -42 36 -63 17 -21 35 -53 41 -72 10 -30 9 -38 -5 -54 -17 -19
-16 -21 11 -56 44 -55 57 -86 81 -193 7 -35 18 -72 23 -82 6 -10 10 -29 10
-43 0 -14 9 -49 20 -78 11 -29 20 -62 20 -72 0 -11 4 -33 10 -50 5 -17 16 -53
24 -80 l16 -49 -30 -34 c-17 -18 -30 -38 -30 -43 0 -5 20 -26 45 -47 34 -28
45 -44 45 -66 0 -15 4 -36 10 -46 5 -10 14 -52 20 -92 6 -41 18 -91 27 -112
13 -29 14 -43 5 -61 -8 -19 -8 -25 2 -29 7 -3 16 -31 20 -64 3 -32 11 -92 16
-133 6 -41 17 -190 25 -330 11 -216 11 -258 0 -277 -12 -18 -12 -28 5 -75 10
-30 20 -83 22 -118 l3 -64 -80 -13 c-72 -11 -121 -21 -277 -55 -26 -5 -53 -6
-60 -2 -19 12 -110 12 -148 0 -19 -6 -41 -19 -49 -30 -19 -26 -73 -46 -124
-46 -43 0 -47 -3 -160 -119 -76 -79 -127 -141 -149 -182 -82 -155 -76 -129
-79 -325 -2 -98 3 -244 10 -324 7 -80 14 -168 16 -196 1 -27 10 -66 20 -85 10
-18 21 -61 26 -94 4 -33 20 -96 35 -139 26 -72 35 -84 89 -128 106 -85 195
-139 260 -158 35 -10 84 -30 110 -46 50 -29 121 -50 225 -66 59 -9 447 -14
530 -7 19 1 89 2 155 1 66 -1 161 -2 210 -2 50 0 106 -1 125 -1 64 -2 304 11
380 20 41 6 131 13 200 16 127 7 343 41 435 69 28 9 93 19 145 22 92 6 174 25
272 65 26 10 53 19 61 19 8 0 33 20 56 45 22 24 54 51 69 59 16 8 41 34 56 58
16 24 38 54 50 68 12 14 33 52 45 85 13 33 37 84 53 113 24 43 30 67 33 131 7
155 7 447 0 491 -4 25 -3 62 3 82 6 23 6 67 0 129 -10 92 -24 131 -95 259 -8
14 -25 49 -39 78 -13 29 -31 55 -39 59 -9 3 -22 18 -30 33 -10 19 -30 34 -62
46 -27 10 -52 21 -58 25 -16 11 -126 49 -170 59 -22 4 -71 19 -110 33 -38 14
-108 31 -155 37 -47 6 -98 15 -115 19 -16 5 -56 15 -88 22 -52 11 -60 17 -78
50 -10 21 -23 40 -29 44 -5 3 -27 63 -49 133 -34 111 -40 146 -50 286 -5 88
-8 163 -5 168 3 5 0 15 -6 24 -14 16 -39 234 -40 340 0 44 -8 98 -21 140 -13
41 -23 104 -24 154 -2 47 -8 126 -14 175 -6 50 -15 137 -20 195 -5 58 -16 161
-25 230 -9 69 -21 213 -25 321 -8 170 -12 202 -30 238 -24 46 -29 84 -36 273
-4 108 -10 146 -41 250 -20 68 -37 150 -38 183 -4 70 -32 173 -76 269 -16 37
-30 75 -30 84 0 41 -119 326 -186 445 -19 33 -51 97 -70 142 -35 81 -57 109
-204 263 -30 32 -73 65 -95 75 -54 24 -113 54 -155 82 -19 12 -64 30 -100 39
-114 30 -175 49 -189 60 -41 32 -786 61 -880 35 -30 -9 -132 -12 -325 -12
l-281 1 -85 -33 c-107 -41 -246 -89 -410 -140 -92 -28 -177 -62 -208 -81 -167
-103 -236 -143 -287 -165 -33 -14 -78 -35 -100 -47 -22 -12 -45 -22 -51 -22
-7 0 -75 -30 -151 -67 -136 -65 -167 -73 -270 -74 -45 0 -141 45 -151 71 -3 8
-16 27 -28 42 -27 34 -54 121 -54 180 -1 23 -5 63 -9 87 -5 24 -6 67 -2 96 4
29 4 90 -1 136 -15 151 -28 834 -17 866 5 12 3 86 -3 165 -6 79 -12 292 -13
473 -3 391 -20 640 -51 729 -9 24 -14 74 -13 122 1 53 -4 98 -14 126 -13 35
-39 247 -38 310 0 10 -4 20 -10 23 -5 4 -9 27 -9 53 0 50 -41 246 -58 278 -5
11 -16 55 -23 99 -7 44 -23 100 -36 124 -13 24 -23 50 -23 57 0 26 -42 94 -71
115 -16 11 -32 32 -36 46 -8 34 -48 68 -93 81 -19 6 -80 16 -135 22 -107 12
-142 27 -147 61 -7 47 -33 49 -173 17 l-130 -29 -170 12 c-93 7 -181 12 -195
12 -81 1 -343 -26 -384 -38 -55 -17 -66 -14 -66 20 0 15 -11 31 -29 44 -28 20
-59 23 -136 15z m517 -135 c13 -7 68 -11 139 -10 92 0 119 -2 129 -14 7 -8 19
-15 26 -15 22 0 16 -36 -12 -69 -21 -26 -24 -34 -14 -46 19 -23 48 -18 89 14
67 52 102 65 196 72 50 4 103 10 119 14 36 10 252 -14 286 -31 14 -6 36 -24
49 -38 14 -14 30 -26 37 -26 8 0 31 -24 53 -54 56 -75 86 -149 116 -286 15
-69 31 -130 57 -220 5 -19 14 -89 19 -155 5 -66 15 -158 23 -205 17 -103 41
-266 55 -375 5 -44 15 -105 20 -135 20 -100 31 -301 36 -650 2 -190 6 -401 7
-470 1 -69 0 -188 -2 -265 -7 -281 7 -885 24 -990 9 -55 16 -117 16 -137 0
-63 60 -162 154 -251 l61 -58 110 4 110 3 125 62 c73 36 137 62 156 62 18 0
38 8 48 19 10 11 32 25 49 32 18 7 57 27 87 45 30 18 70 35 89 39 18 4 52 20
75 35 22 15 66 40 96 54 30 15 71 36 90 46 69 38 156 77 185 84 34 8 76 23
250 92 71 28 146 50 185 55 36 4 98 14 139 23 56 12 129 15 300 14 131 -1 236
3 251 9 15 6 131 9 285 8 228 -1 263 -3 286 -18 14 -10 33 -15 41 -12 7 3 33
-1 57 -10 24 -8 70 -15 103 -15 40 0 72 -7 101 -21 23 -12 53 -25 67 -30 138
-43 278 -118 300 -159 6 -11 21 -23 33 -26 46 -13 195 -231 275 -403 55 -118
117 -269 144 -351 25 -73 50 -142 71 -195 28 -69 55 -168 68 -245 6 -36 24
-116 41 -179 18 -69 31 -147 33 -200 6 -160 17 -256 31 -295 26 -69 44 -176
44 -264 0 -48 12 -208 26 -357 15 -148 30 -342 34 -430 5 -108 14 -187 28
-242 12 -48 28 -163 37 -279 9 -109 18 -201 20 -205 3 -4 10 -64 15 -133 20
-248 37 -322 110 -498 25 -61 42 -85 81 -118 60 -50 83 -57 213 -66 103 -7
221 -35 311 -74 28 -12 73 -29 100 -37 65 -19 163 -74 196 -110 15 -15 35 -44
44 -63 10 -19 23 -42 31 -50 7 -9 27 -54 44 -100 27 -78 30 -95 30 -216 0
-148 -5 -165 -88 -307 -53 -91 -130 -158 -201 -178 -25 -7 -59 -19 -76 -28
-36 -18 -181 -30 -445 -35 -102 -1 -212 -8 -245 -15 -56 -10 -194 -22 -275
-22 -19 0 -64 0 -100 -1 -36 0 -276 -1 -535 -2 -497 -2 -596 4 -632 37 -13 12
-33 18 -50 17 -109 -10 -225 10 -338 60 -22 9 -53 22 -68 29 -40 16 -81 107
-72 160 5 34 3 41 -14 51 -12 6 -27 23 -35 39 -28 53 -16 316 17 378 27 52
152 193 201 228 60 42 172 82 271 95 43 6 90 17 102 26 13 8 33 12 43 9 11 -3
92 -1 182 5 l162 11 68 46 c38 24 73 53 79 64 5 11 12 50 14 87 3 37 10 126
15 197 6 72 11 139 12 150 0 11 7 103 14 205 16 214 22 547 11 670 -4 47 -11
171 -17 275 -21 394 -37 576 -55 630 -8 22 -19 78 -25 125 -6 47 -26 132 -44
190 -19 58 -36 123 -39 145 -4 22 -15 72 -26 110 -11 39 -21 80 -21 91 0 23
-68 182 -103 243 -35 60 -104 152 -126 168 -12 8 -31 33 -43 56 -11 23 -43 67
-69 96 -27 30 -49 58 -49 62 0 8 -137 98 -195 128 -22 12 -50 21 -62 21 -12 0
-44 9 -71 19 -27 11 -86 22 -133 26 -46 3 -118 14 -159 22 -60 13 -111 15
-265 9 -104 -3 -230 -13 -280 -21 -49 -9 -139 -20 -200 -25 -250 -22 -247 -21
-520 -112 -92 -30 -118 -38 -214 -59 -80 -17 -298 -116 -360 -163 -19 -14 -40
-26 -45 -26 -6 0 -41 -26 -78 -58 -37 -31 -87 -72 -110 -90 -24 -19 -74 -57
-111 -87 -38 -29 -75 -65 -83 -80 -7 -15 -36 -47 -63 -71 -48 -43 -112 -151
-140 -237 -7 -21 -24 -45 -38 -54 -35 -23 -60 -83 -41 -97 10 -9 13 -65 11
-282 -2 -149 2 -295 7 -325 5 -30 14 -110 20 -179 6 -69 17 -149 25 -179 8
-30 17 -91 21 -135 3 -45 9 -92 14 -106 12 -33 29 -305 36 -565 3 -115 10
-239 15 -275 6 -36 12 -95 14 -132 4 -86 23 -179 40 -198 7 -8 21 -32 31 -52
11 -21 52 -65 93 -98 60 -48 81 -60 110 -60 20 0 54 -6 76 -14 22 -7 72 -17
110 -21 39 -4 83 -14 98 -22 16 -8 35 -12 43 -9 12 5 107 -15 274 -57 60 -15
108 -37 155 -72 39 -28 112 -65 129 -65 17 0 120 -105 149 -152 18 -29 21 -50
23 -169 1 -74 4 -145 8 -156 3 -11 -2 -62 -13 -114 -61 -298 -62 -299 -119
-350 -66 -58 -151 -114 -192 -127 -175 -54 -298 -77 -470 -87 -84 -4 -232 -23
-293 -36 -26 -6 -153 -13 -282 -14 -130 -2 -239 -6 -244 -10 -42 -25 -897 -41
-939 -17 -18 10 -27 10 -53 -4 -36 -18 -210 -22 -262 -5 -18 6 -63 15 -102 20
-110 16 -275 57 -335 83 -30 14 -67 28 -82 31 -15 4 -70 27 -122 52 -96 46
-130 78 -127 119 6 85 8 80 -28 92 -34 11 -34 12 -38 74 -3 67 13 110 42 110
21 0 19 23 -5 53 -17 21 -19 34 -14 89 7 60 32 130 54 143 6 3 9 20 8 37 -3
32 1 36 141 153 43 36 89 63 135 80 39 14 81 33 93 40 12 8 39 19 60 24 21 6
63 18 93 27 80 24 253 64 370 85 36 6 86 22 112 35 60 29 209 126 226 147 7 8
14 37 14 64 1 96 -11 418 -17 455 -4 21 -1 52 6 72 12 32 11 38 -9 59 -19 20
-21 34 -21 132 0 61 -3 142 -6 180 -3 39 -9 148 -14 243 -4 95 -11 175 -14
179 -4 3 0 15 8 27 21 29 19 53 -5 66 -14 7 -19 17 -15 29 3 10 1 69 -5 132
-9 106 -8 115 9 129 30 24 33 68 5 87 l-23 15 0 441 c0 259 -4 481 -11 537 -6
52 -10 115 -9 140 0 25 0 314 0 642 -2 525 0 600 14 621 9 15 13 35 9 53 -4
23 0 36 20 57 l25 27 -32 -3 -32 -2 -3 170 c-2 156 -1 172 17 196 19 25 19 27
2 32 -15 4 -19 21 -25 128 -10 171 -15 314 -20 667 -3 167 -8 307 -11 312 -3
4 -6 55 -6 112 -1 57 -10 171 -21 253 -11 83 -21 175 -23 205 -4 104 -16 142
-84 278 -9 18 -29 42 -46 52 -16 11 -41 27 -53 36 -21 16 -58 18 -310 20 -263
2 -287 4 -311 22 -18 13 -27 30 -29 57 l-3 37 -21 -38 c-36 -69 -44 -74 -117
-73 -86 0 -135 17 -139 47 -4 26 -27 28 -86 7 -62 -22 -170 6 -244 63 -19 15
-21 21 -13 50 11 38 -1 48 -40 34 -30 -11 -56 3 -121 69 -52 51 -68 83 -68
134 0 23 -7 39 -22 49 -21 15 -21 19 -15 161 6 118 11 154 27 185 12 24 18 49
14 64 -3 15 5 47 24 89 17 36 33 80 37 97 15 67 53 136 89 161 20 13 36 28 36
33 0 20 88 116 125 137 22 12 47 28 56 35 33 29 166 86 202 88 23 1 43 8 48
17 11 20 68 45 144 63 33 8 74 19 90 25 52 18 218 49 273 50 29 0 63 -4 74
-10z m-695 -25 c2 -7 -7 -14 -20 -18 -13 -3 -49 -28 -81 -56 -50 -44 -62 -50
-102 -50 -25 0 -58 -7 -75 -15 -34 -18 -190 -57 -294 -74 -38 -7 -94 -16 -123
-21 -80 -14 -106 6 -63 49 22 22 142 81 165 81 9 0 37 11 63 24 50 25 103 42
238 74 91 22 285 26 292 6z m-418 -320 c3 -3 -9 -16 -27 -30 -18 -14 -32 -34
-32 -45 0 -11 -8 -22 -17 -25 -10 -3 -62 -26 -116 -50 -53 -24 -105 -44 -114
-44 -9 0 -36 -9 -60 -20 -24 -11 -62 -29 -86 -40 -24 -11 -51 -20 -60 -20 -21
0 -22 35 -3 87 8 21 17 59 21 84 3 26 11 54 18 63 12 16 17 16 72 1 85 -22
127 -21 161 4 46 34 219 59 243 35z m-146 -288 c3 -7 -8 -39 -24 -71 -16 -32
-29 -68 -29 -80 0 -70 -9 -82 -84 -113 -39 -16 -94 -37 -121 -45 -28 -8 -68
-24 -90 -36 -22 -11 -45 -21 -51 -21 -13 0 -12 222 1 253 4 9 19 20 34 23 89
21 132 34 160 48 24 13 147 48 192 55 4 1 9 -5 12 -13z m-95 -498 l-3 -111
-35 -20 c-18 -10 -88 -41 -155 -68 -104 -42 -122 -47 -131 -34 -11 15 -17 164
-8 196 2 9 37 36 77 61 86 54 145 75 245 87 10 1 12 -24 10 -111z m104 -290
c32 -35 58 -70 58 -79 0 -24 -29 -46 -95 -70 -33 -12 -69 -30 -80 -39 -11 -9
-40 -24 -65 -33 -27 -10 -56 -31 -73 -52 -15 -19 -34 -35 -42 -35 -16 0 -60
71 -71 115 -4 17 -13 39 -20 50 -8 11 -14 27 -14 37 0 21 55 63 94 72 17 4 43
17 60 29 29 20 146 65 175 66 8 1 41 -27 73 -61z m238 -217 c14 -9 46 -28 73
-41 26 -13 46 -29 44 -34 -4 -11 -144 -95 -277 -164 -41 -22 -86 -52 -99 -66
-44 -47 -101 -28 -193 66 -57 59 -58 57 47 113 39 20 75 42 82 47 7 5 65 32
130 59 124 51 146 53 193 20z m425 -123 c6 -6 1 -16 -15 -29 -35 -28 -143 -99
-220 -145 -84 -50 -113 -71 -165 -116 -26 -24 -52 -38 -69 -38 -40 0 -124 30
-130 46 -7 18 143 120 251 171 43 20 100 54 126 75 27 21 61 41 75 44 15 3 32
7 37 9 18 5 100 -7 110 -17z m575 -20 c0 -13 -13 -24 -37 -34 -78 -32 -149
-67 -190 -94 -23 -16 -88 -51 -145 -79 -199 -97 -228 -119 -228 -172 0 -38
-11 -42 -72 -30 -29 6 -75 15 -103 21 -91 18 -95 20 -95 40 0 12 10 24 23 29
12 5 31 18 41 30 11 11 25 21 32 21 7 0 28 13 46 29 41 36 116 83 188 118 30
15 75 40 100 57 125 85 123 85 293 83 136 -1 147 -2 147 -19z m276 -6 c22 -14
64 -100 64 -129 0 -24 -8 -36 -41 -57 -60 -40 -126 -76 -140 -76 -7 0 -35 -15
-63 -33 -28 -19 -64 -41 -81 -49 -70 -36 -141 -68 -151 -68 -7 0 -17 -7 -24
-15 -6 -8 -30 -25 -53 -38 -36 -21 -48 -24 -87 -16 -25 4 -71 13 -104 19 -64
12 -96 25 -96 41 0 5 34 31 76 57 42 26 97 64 123 85 25 20 64 42 86 48 35 10
63 23 189 91 17 9 62 24 99 34 70 19 107 48 107 84 0 9 3 20 7 23 9 9 75 9 89
-1z m102 -311 c21 -13 53 -291 56 -471 l1 -105 -65 -37 c-36 -20 -90 -44 -120
-51 -30 -8 -80 -26 -110 -41 -29 -14 -59 -26 -65 -26 -13 0 -39 69 -38 98 1 9
-8 41 -18 70 -10 29 -19 61 -19 72 0 21 22 30 215 85 72 21 136 42 143 48 34
27 -1 106 -60 133 l-39 17 -31 -37 c-31 -38 -118 -88 -203 -118 -69 -23 -83
-22 -115 10 -15 15 -41 37 -56 48 -24 18 -27 24 -15 37 7 9 22 19 34 23 12 4
42 24 67 44 46 38 382 210 409 210 9 0 22 -4 29 -9z m73 -743 c0 -7 1 -58 1
-113 -1 -143 -18 -179 -109 -222 -99 -46 -204 -85 -218 -79 -7 2 -15 28 -18
58 -4 29 -15 85 -25 125 -13 51 -15 75 -8 85 20 26 247 138 280 138 12 0 28 5
36 10 21 14 60 12 61 -2z m15 -474 c12 -46 -4 -146 -26 -169 -12 -12 -53 -32
-93 -45 -40 -12 -94 -31 -122 -42 -82 -33 -80 -33 -92 7 -9 27 -9 44 -1 61 8
18 7 29 -5 48 -9 14 -14 31 -12 38 6 14 114 71 200 106 28 11 71 20 97 21 43
1 48 -1 54 -25z m14 -388 l0 -84 -42 -20 c-24 -10 -79 -32 -123 -47 -44 -14
-98 -37 -120 -50 -64 -37 -73 -24 -71 86 l2 92 50 14 c27 7 75 20 107 28 32 8
72 22 90 32 34 17 74 31 95 32 9 1 12 -22 12 -83z m-5 -245 c3 -5 6 -55 7
-111 1 -78 -1 -104 -13 -116 -9 -8 -60 -30 -115 -48 -54 -19 -116 -41 -137
-50 -21 -9 -42 -14 -47 -11 -6 4 -10 32 -10 63 -1 31 -5 76 -9 99 -8 43 6 83
31 83 6 0 51 19 102 41 129 59 177 71 191 50z m3 -379 c9 -6 12 -39 10 -127
l-3 -118 -40 -14 c-22 -7 -56 -29 -75 -47 -60 -57 -129 -98 -153 -92 -21 5
-22 11 -22 103 0 54 -2 120 -5 148 l-5 49 45 24 c25 14 74 33 110 43 36 9 76
22 90 27 31 13 32 13 48 4z m4 -474 c4 -113 3 -194 -4 -210 -5 -9 -24 -22 -45
-29 -20 -6 -61 -31 -90 -55 -117 -96 -123 -92 -123 79 0 115 2 136 18 149 22
20 213 117 230 118 8 0 13 -18 14 -52z m3418 -33 c0 -8 -22 -26 -49 -40 -27
-13 -52 -29 -56 -34 -6 -10 -128 -92 -225 -151 -30 -18 -71 -48 -90 -66 -19
-17 -64 -55 -100 -84 -62 -50 -67 -52 -113 -46 -27 3 -59 0 -73 -6 -39 -18
-52 3 -28 47 27 51 222 214 299 251 62 30 107 62 119 85 9 19 23 26 66 32 30
5 75 12 100 16 80 15 150 13 150 -4z m286 -12 c29 -11 12 -35 -58 -79 -40 -26
-118 -83 -173 -127 -54 -45 -128 -97 -164 -116 -46 -25 -67 -43 -71 -60 -5
-24 -8 -25 -105 -25 -94 -1 -100 0 -100 19 0 14 34 44 120 102 66 46 131 87
143 93 13 6 49 28 80 50 30 22 62 40 69 40 19 0 104 49 120 68 10 13 10 19 -5
35 -17 19 -16 20 57 13 40 -4 79 -10 87 -13z m-809 -40 c4 -10 -129 -122 -306
-259 -80 -62 -87 -70 -98 -114 -8 -30 -14 -35 -49 -41 -89 -15 -174 -20 -174
-11 0 22 47 66 160 149 165 122 195 143 274 186 39 20 85 53 102 73 25 27 40
35 60 32 15 -2 29 -8 31 -15z m1080 -15 c29 -12 53 -24 53 -28 0 -9 -126 -100
-138 -100 -5 0 -29 -17 -53 -38 -24 -21 -66 -54 -94 -72 -27 -19 -74 -57 -103
-84 -76 -72 -106 -90 -131 -77 -11 6 -40 11 -65 11 -77 0 -99 22 -53 53 12 8
36 27 54 43 50 46 291 216 346 245 12 7 38 25 57 41 42 34 59 35 127 6z
m-1429 -47 c-4 -13 -129 -110 -213 -168 -38 -26 -88 -62 -110 -79 -22 -17 -48
-34 -57 -37 -9 -3 -35 -31 -58 -61 -44 -60 -39 -58 -155 -61 -33 -1 -66 -3
-74 -6 -7 -2 -16 2 -18 8 -3 8 22 29 57 50 116 71 296 191 310 208 7 9 32 26
54 37 23 11 55 30 71 43 55 41 129 75 163 75 19 0 32 -4 30 -9z m1634 -98 c62
-61 52 -75 -84 -120 -30 -9 -75 -39 -123 -82 -172 -150 -186 -161 -210 -161
-29 0 -95 55 -95 80 0 9 17 29 38 43 20 14 58 41 83 59 26 18 77 54 113 81 37
26 82 54 100 61 18 8 52 28 76 45 24 17 48 31 54 31 5 0 27 -17 48 -37z
m-4180 -197 c2 -51 1 -118 -2 -147 -5 -53 -5 -54 -58 -81 -29 -14 -68 -38 -87
-52 -18 -14 -47 -26 -63 -26 l-29 0 -1 83 c-1 45 -4 100 -8 122 -3 26 -1 45 8
56 39 46 185 136 224 138 8 1 13 -31 16 -93z m1887 48 c-41 -49 -81 -88 -136
-131 -34 -26 -87 -70 -117 -97 -51 -44 -124 -81 -136 -69 -10 10 229 216 292
252 24 13 57 32 73 42 38 22 40 23 24 3z m2446 -44 c28 -29 28 -30 9 -51 -10
-12 -77 -66 -149 -120 -71 -54 -161 -128 -200 -165 l-70 -66 -14 36 c-7 20
-20 36 -27 36 -8 0 -21 11 -30 25 -14 22 -15 30 -4 48 32 56 318 266 365 267
11 0 27 5 35 10 27 17 56 11 85 -20z m106 -150 c10 -6 19 -18 19 -27 0 -9 9
-26 20 -38 11 -11 22 -35 26 -52 5 -27 3 -32 -17 -38 -13 -4 -35 -17 -49 -30
-14 -12 -43 -32 -65 -45 -54 -32 -189 -143 -246 -202 -25 -27 -52 -48 -60 -48
-7 0 -27 23 -42 50 l-28 51 35 62 c46 80 48 82 130 147 62 49 246 179 254 180
2 0 12 -5 23 -10z m-4426 -202 c3 -13 4 -79 3 -148 l-3 -125 -86 -52 c-103
-63 -144 -75 -154 -44 -3 12 -1 37 5 56 7 20 8 49 5 67 -4 18 -7 57 -6 88 1
49 4 58 33 82 18 15 60 39 93 54 33 14 67 30 75 35 24 13 29 11 35 -13z m4548
-97 c6 -7 14 -36 18 -65 4 -28 19 -91 34 -140 29 -99 29 -129 0 -134 -31 -6
-135 -72 -185 -117 -25 -23 -73 -60 -107 -83 -34 -23 -65 -46 -68 -52 -20 -33
-63 27 -52 72 3 13 10 37 14 54 10 39 100 122 169 157 88 45 144 87 150 114 6
21 1 31 -27 54 -27 23 -40 27 -64 23 -40 -8 -45 -12 -45 -34 0 -11 -19 -30
-47 -48 -27 -16 -79 -55 -116 -86 -38 -31 -77 -56 -88 -56 -29 0 -34 26 -10
56 12 15 21 32 21 39 0 16 46 62 90 90 19 12 51 38 70 56 42 41 150 116 194
134 27 12 31 12 35 -3 2 -9 8 -23 14 -31z m-3197 -118 c-4 -16 -18 -36 -32
-46 -17 -13 -24 -28 -24 -51 0 -38 -52 -106 -81 -106 -17 0 -19 5 -15 33 10
61 37 112 84 154 56 50 77 55 68 16z m-1340 -320 l-1 -138 -35 -6 c-46 -8 -80
-22 -129 -54 -43 -26 -75 -32 -86 -15 -4 6 -1 41 5 78 9 47 9 78 2 103 -5 20
-6 42 -2 50 10 15 208 116 231 118 15 1 17 -15 15 -136z m4649 -43 c30 -89 31
-86 -38 -130 -35 -21 -69 -50 -77 -62 -7 -13 -49 -54 -93 -93 -44 -38 -89 -82
-100 -97 -23 -31 -18 -67 13 -86 18 -11 27 -10 60 9 23 13 40 30 40 40 0 25
142 151 188 167 33 11 38 11 50 -5 7 -10 12 -37 10 -62 -3 -43 -4 -44 -50 -56
-60 -15 -107 -48 -281 -196 -31 -27 -40 -30 -48 -18 -5 8 -9 22 -9 31 0 25
-25 113 -55 196 -15 40 -24 79 -21 87 3 8 18 15 33 15 45 0 70 24 76 72 5 36
14 50 54 85 26 24 62 49 80 58 17 8 50 31 74 51 52 43 78 42 94 -6z m-4661
-229 c3 -4 8 -35 11 -67 3 -32 8 -87 11 -122 6 -67 -11 -112 -41 -112 -9 0
-52 -18 -96 -40 -94 -46 -107 -48 -113 -17 -8 39 -16 257 -9 272 5 15 92 77
123 88 24 9 108 8 114 -2z m4733 -248 c4 -16 8 -70 8 -122 l0 -94 -64 -23
c-35 -13 -73 -32 -85 -42 -37 -33 -176 -122 -191 -122 -16 0 -21 15 -34 98 -8
50 -7 54 26 96 19 25 40 47 48 49 7 3 41 27 75 54 67 52 190 133 202 133 4 0
11 -12 15 -27z m-4707 -268 l0 -114 -56 -33 c-30 -18 -76 -50 -102 -70 -26
-21 -54 -38 -64 -38 -21 0 -42 36 -31 53 4 6 8 55 9 107 1 52 2 98 3 101 4 23
213 124 234 112 4 -2 7 -55 7 -118z m4716 -66 c11 -19 23 -81 17 -95 -3 -8
-15 -14 -26 -14 -26 0 -146 -70 -210 -122 -55 -46 -81 -46 -85 -3 -3 40 51 95
178 181 97 65 114 72 126 53z m-4703 -186 c3 -10 6 -79 6 -154 1 -118 -1 -137
-16 -151 -41 -35 -216 -118 -251 -118 -9 0 -11 33 -6 148 4 81 10 152 15 158
5 5 46 30 91 53 46 24 90 49 98 56 14 12 37 23 52 24 4 1 9 -7 11 -16z m4727
-72 c0 -21 3 -52 6 -68 5 -27 -1 -35 -98 -113 -121 -99 -164 -130 -183 -130
-19 0 -22 7 -29 65 -8 55 -5 60 74 144 44 46 186 141 211 141 15 0 19 -8 19
-39z m-2 -317 c-3 -48 -4 -49 -41 -55 -27 -4 -53 -21 -100 -66 -82 -78 -114
-100 -130 -84 -27 27 64 130 203 229 30 22 59 36 63 32 5 -4 7 -29 5 -56z
m-4718 -44 c11 -7 16 -35 18 -115 4 -112 -3 -135 -40 -135 -10 0 -70 -25 -133
-56 -63 -30 -119 -53 -125 -49 -13 8 -13 161 1 186 18 35 89 92 168 136 82 46
89 47 111 33z m4703 -189 c4 -40 2 -75 -8 -108 -8 -26 -15 -83 -15 -125 l0
-78 -105 -52 c-57 -28 -107 -50 -109 -47 -3 3 -6 37 -8 77 -2 70 -1 73 32 108
19 20 65 53 103 75 76 45 86 72 42 107 -33 26 -32 45 6 76 46 39 55 34 62 -33z
m-4657 -211 c12 -56 6 -80 -20 -80 -7 0 -72 -29 -146 -65 -74 -36 -137 -62
-141 -58 -4 5 -10 33 -13 63 -7 53 -6 57 26 87 18 17 69 46 113 63 160 65 164
64 181 -10z m4 -219 c23 -44 4 -215 -28 -254 -27 -32 -244 -128 -258 -114 -6
6 -12 82 -17 211 -1 34 2 51 13 57 35 19 217 102 240 110 37 11 38 11 50 -10z
m4620 -75 c0 -82 -55 -150 -131 -162 -34 -6 -37 -4 -48 26 -16 48 -14 95 7
113 29 27 126 76 150 76 20 1 22 -4 22 -53z m-1060 -526 c0 -11 -21 -25 -60
-40 -19 -7 -45 -22 -57 -33 -13 -11 -23 -17 -23 -14 0 10 72 82 94 94 20 11
46 7 46 -7z m-4780 -190 c0 -22 -25 -58 -67 -92 -47 -41 -97 -52 -86 -20 10
27 44 62 92 93 48 31 61 35 61 19z m4686 -66 c0 -73 -4 -94 -20 -94 -7 0 -35
-11 -62 -25 -27 -14 -57 -25 -68 -25 -16 0 -18 5 -12 43 5 35 17 52 72 105 36
35 71 61 77 59 7 -2 12 -27 13 -63z m-4742 -185 c-1 -67 -11 -90 -59 -132 -51
-45 -111 -61 -117 -31 -5 24 24 130 39 145 18 18 117 68 128 65 6 -2 10 -23 9
-47z m4751 -66 c8 -52 16 -42 -109 -148 -26 -22 -49 -42 -52 -45 -9 -8 -24 24
-24 51 0 62 105 189 156 189 18 0 23 -7 29 -47z m66 -189 c13 -56 40 -105 64
-116 27 -12 32 -31 13 -48 -7 -6 -70 -40 -140 -75 l-128 -65 0 32 c0 17 -7 39
-16 49 -21 23 -11 83 18 107 11 9 51 48 90 85 38 38 75 66 81 64 6 -2 14 -17
18 -33z m-4839 -39 c0 -30 1 -59 2 -65 1 -8 -34 -34 -119 -89 -39 -25 -53 -10
-45 50 5 41 13 57 36 75 16 13 38 31 48 41 23 20 57 42 69 43 4 0 8 -25 9 -55z
m8061 23 c6 -22 -20 -211 -32 -238 -4 -8 -42 -35 -83 -60 -42 -25 -96 -64
-121 -87 -24 -22 -59 -48 -78 -57 -19 -9 -70 -43 -114 -77 -44 -33 -101 -71
-126 -83 -25 -13 -68 -47 -94 -75 -47 -50 -68 -61 -80 -41 -18 29 103 170 221
257 29 21 106 80 173 131 67 50 128 92 136 92 8 0 25 14 37 31 13 17 44 46 70
65 47 33 48 34 41 79 -4 36 -2 50 12 65 23 26 31 25 38 -2z m-7998 -209 c4
-12 20 -42 36 -67 16 -25 25 -50 21 -54 -11 -11 -175 -111 -219 -134 -42 -22
-66 -13 -53 20 7 19 5 26 -7 30 -40 16 27 100 156 198 44 33 58 34 66 7z
m5103 5 c35 -10 26 -29 -37 -76 -33 -23 -97 -70 -142 -103 -46 -33 -108 -86
-138 -117 -31 -32 -64 -58 -73 -58 -15 0 -35 27 -88 123 -25 45 -13 72 26 63
18 -5 32 3 58 29 36 36 142 93 231 125 52 18 123 24 163 14z m2532 -28 c0 -14
-71 -66 -90 -66 -13 0 -13 21 0 54 8 22 16 26 50 26 27 0 40 -4 40 -14z m-260
-24 c0 -18 -58 -82 -74 -82 -6 0 -33 -18 -61 -40 -27 -22 -75 -59 -105 -82
-30 -23 -91 -75 -135 -115 -44 -41 -97 -84 -119 -96 -33 -19 -73 -73 -89 -120
-4 -13 -159 -27 -179 -16 -12 7 -37 4 -75 -7 -49 -14 -114 -17 -413 -18 -195
-1 -361 0 -367 2 -28 9 -10 41 48 88 195 155 269 211 341 256 24 15 67 47 96
72 30 25 60 46 67 46 7 0 22 10 32 23 45 56 71 67 159 67 62 0 84 -3 84 -13 0
-16 -61 -74 -124 -118 -27 -19 -65 -46 -85 -61 -20 -15 -76 -55 -126 -89 -163
-111 -195 -138 -195 -170 0 -30 23 -59 46 -59 29 0 90 39 133 85 25 26 61 58
80 71 20 14 59 43 86 65 28 22 79 60 115 85 119 81 165 115 200 149 19 18 54
38 78 44 93 24 119 30 170 36 44 6 52 4 52 -9 0 -9 -21 -31 -47 -49 -26 -17
-77 -60 -113 -93 -37 -34 -93 -81 -126 -105 -32 -24 -71 -55 -85 -69 -15 -14
-38 -33 -53 -43 -14 -10 -34 -29 -42 -43 -14 -20 -14 -29 -4 -54 14 -35 43
-54 68 -46 9 4 44 39 76 79 58 70 204 200 273 243 19 12 49 35 66 51 18 17 53
42 78 56 26 15 58 40 71 55 31 38 39 40 126 40 60 0 72 -2 72 -16z m-2012 -7
c17 -4 32 -10 32 -13 0 -8 -45 -44 -208 -166 -167 -125 -232 -187 -232 -224 0
-21 -6 -33 -19 -37 -26 -8 -121 43 -121 65 0 18 162 178 210 208 14 9 35 25
48 36 13 12 41 30 61 41 21 11 67 39 101 63 35 23 71 40 79 38 9 -3 31 -7 49
-11z m-1690 -32 c-3 -25 -7 -28 -36 -26 -18 0 -36 4 -39 7 -11 11 30 46 54 46
21 0 24 -4 21 -27z m2099 3 c9 -9 -43 -58 -75 -72 -21 -8 -50 -28 -67 -43 -16
-16 -79 -66 -140 -111 -60 -46 -136 -106 -167 -134 -53 -47 -58 -54 -58 -93 0
-36 3 -43 20 -43 50 0 101 34 176 116 42 47 91 92 108 101 17 9 51 33 76 53
25 21 61 46 81 56 20 11 78 48 130 83 129 87 164 101 259 101 43 0 81 -4 85
-10 10 -16 -15 -45 -73 -86 -30 -21 -75 -56 -99 -77 -25 -20 -70 -55 -101 -77
-31 -22 -88 -67 -127 -100 -264 -227 -239 -213 -365 -206 -94 5 -176 19 -335
56 -81 18 -98 47 -45 79 17 10 48 42 69 72 43 60 95 105 186 164 143 91 255
167 260 175 5 8 194 5 202 -4z m1733 -24 c0 -13 -22 -36 -75 -76 -27 -21 -66
-56 -85 -76 -19 -21 -71 -71 -115 -111 -76 -70 -80 -77 -85 -124 l-5 -50 -60
-8 c-33 -5 -64 -13 -69 -18 -17 -16 -66 -11 -66 7 0 22 53 81 114 128 28 21
67 52 87 70 102 89 158 135 213 174 33 23 76 54 95 67 35 26 51 31 51 17z
m-4010 -62 c0 -17 -81 -87 -410 -353 -91 -73 -182 -144 -204 -157 -45 -27 -72
-80 -56 -110 15 -28 12 -37 -12 -43 -13 -3 -50 -17 -83 -31 -60 -25 -62 -25
-290 -21 -196 4 -230 6 -233 19 -4 21 72 111 117 139 49 29 264 182 327 232
29 22 89 63 134 90 46 28 107 71 137 98 42 37 61 47 91 48 20 0 47 2 60 5 25
4 39 -16 25 -39 -14 -26 -154 -132 -450 -342 -31 -22 -65 -52 -76 -67 -20 -27
-20 -28 -2 -68 10 -22 25 -40 34 -40 27 0 79 37 95 67 23 46 107 118 233 200
143 93 245 167 302 221 33 31 44 49 45 73 1 32 2 33 69 46 37 8 82 22 100 32
32 18 47 18 47 1z m-3210 -40 c15 0 33 -6 39 -14 16 -20 -10 -38 -156 -111
-96 -48 -125 -67 -140 -93 -16 -30 -16 -35 -3 -60 9 -15 28 -31 42 -36 22 -8
33 -5 63 20 20 16 49 35 63 43 15 8 35 25 45 38 23 29 191 113 225 113 14 0
42 5 62 11 37 11 90 6 90 -9 -1 -11 -132 -105 -279 -199 -41 -26 -96 -69 -121
-94 -54 -53 -91 -64 -154 -45 -49 15 -126 72 -126 93 0 8 -16 21 -35 29 -30
12 -35 19 -35 47 0 17 -7 45 -15 61 -22 42 -11 61 53 96 31 18 82 46 112 62
30 17 82 41 115 53 54 20 63 21 94 9 18 -8 46 -14 61 -14z m3360 -1 c0 -5 -9
-27 -19 -47 -11 -20 -23 -50 -28 -66 -7 -25 -16 -32 -56 -42 -34 -9 -66 -28
-112 -71 -36 -32 -84 -72 -108 -90 -23 -18 -57 -45 -76 -60 -18 -15 -63 -48
-99 -74 -50 -34 -69 -53 -76 -78 -7 -25 -19 -38 -49 -51 -50 -23 -71 -16 -62
19 8 35 65 92 181 182 53 41 119 93 147 116 29 24 95 76 147 117 52 42 115 93
140 115 44 40 70 51 70 30z m4219 -46 c-16 -42 -112 -126 -190 -167 -67 -34
-129 -47 -129 -27 0 23 277 218 312 220 15 1 16 -3 7 -26z m-5144 -44 c9 -13
-19 -44 -75 -82 -42 -29 -213 -161 -286 -221 -33 -27 -89 -66 -224 -156 -47
-32 -94 -67 -104 -79 -35 -38 -184 -68 -202 -40 -9 15 16 38 116 106 51 35 96
75 113 100 33 49 74 80 212 156 218 120 250 139 283 165 70 57 149 81 167 51z
m-346 -25 c11 -9 -72 -70 -149 -109 -27 -14 -84 -48 -128 -77 -93 -62 -105
-71 -154 -100 -20 -13 -47 -40 -58 -61 -12 -21 -45 -55 -73 -75 -78 -57 -246
-142 -294 -149 -38 -5 -41 -4 -37 14 7 27 118 141 174 178 25 17 81 58 126 91
44 34 91 67 105 74 13 7 62 45 107 84 46 39 96 77 110 85 15 7 36 22 47 32 11
10 40 20 65 22 43 4 151 -2 159 -9z m-442 -31 c4 -11 -1 -22 -17 -32 -13 -9
-40 -29 -61 -46 -20 -16 -51 -42 -70 -57 -19 -14 -44 -35 -56 -45 -12 -10 -42
-34 -68 -53 -26 -19 -63 -49 -83 -66 -21 -17 -53 -41 -72 -54 -19 -13 -37 -27
-40 -30 -3 -3 -29 -25 -57 -49 -37 -30 -53 -50 -53 -67 0 -17 -7 -25 -26 -30
-37 -9 -173 1 -186 14 -13 13 85 131 141 168 20 13 53 36 74 51 68 50 201 139
260 174 33 19 77 54 100 79 44 47 46 48 185 58 13 1 25 -5 29 -15z m-1071 -5
c4 -6 -3 -19 -17 -30 -42 -34 -193 -129 -225 -142 -44 -19 -74 -62 -74 -105 0
-20 4 -42 9 -49 15 -24 60 -1 110 57 39 45 71 68 160 114 62 32 128 69 148 83
20 13 40 24 46 24 6 0 20 9 32 20 13 12 46 24 81 30 109 18 122 -6 39 -69 -30
-22 -57 -41 -60 -41 -12 0 -220 -143 -255 -175 -19 -18 -56 -46 -82 -64 -37
-25 -47 -38 -50 -64 l-3 -32 -85 4 c-47 2 -94 8 -105 14 -35 20 -89 37 -116
37 -33 0 -93 40 -97 64 -12 62 387 331 495 335 23 0 45 -4 49 -11z m703 2 c19
-10 -16 -44 -135 -128 -49 -35 -114 -83 -144 -108 -30 -24 -65 -49 -77 -54
-12 -5 -49 -30 -82 -55 -53 -40 -61 -51 -61 -80 0 -24 7 -37 26 -50 14 -9 23
-19 20 -22 -9 -9 -183 -14 -236 -7 -67 8 -75 15 -57 51 16 29 100 113 114 113
5 0 32 20 62 44 29 24 81 61 115 81 33 20 86 54 116 76 30 21 60 39 65 39 25
0 135 61 149 82 12 18 25 23 63 25 26 1 54 -2 62 -7z"/>
<path d="M26319 10735 c-3 -3 -55 -7 -115 -10 -114 -5 -255 -20 -339 -35 -27
-5 -131 -14 -230 -20 -198 -12 -206 -13 -250 -28 -65 -23 -214 -61 -280 -73
-38 -6 -103 -20 -143 -30 -40 -11 -83 -19 -97 -19 -13 0 -48 -11 -77 -24 -113
-50 -226 -96 -236 -96 -6 0 -28 -11 -48 -25 -39 -27 -83 -32 -102 -13 -8 8
-15 8 -24 0 -26 -21 -154 -60 -215 -65 -48 -4 -70 -11 -93 -31 -17 -14 -50
-31 -73 -37 -23 -6 -53 -15 -67 -20 -40 -13 -252 7 -315 31 -16 6 -52 33 -80
59 -27 27 -77 61 -110 76 -33 15 -68 31 -77 36 -10 5 -26 9 -35 9 -10 0 -45
13 -78 29 -60 29 -107 44 -240 77 -56 14 -112 17 -300 16 -126 -1 -254 -6
-284 -12 -29 -5 -110 -10 -178 -10 -107 0 -129 -3 -152 -19 -15 -11 -57 -29
-95 -41 -56 -18 -72 -20 -94 -11 -24 12 -41 3 -42 -21 0 -4 -70 -77 -155 -162
-100 -101 -157 -166 -160 -184 -4 -15 -15 -47 -25 -72 -53 -131 -56 -144 -84
-361 -7 -53 -16 -101 -20 -107 -3 -5 1 -26 9 -46 8 -19 15 -58 15 -86 0 -28 7
-64 15 -79 8 -16 19 -50 25 -76 13 -56 82 -186 126 -235 17 -19 38 -49 47 -66
11 -21 26 -33 44 -37 15 -3 60 -14 98 -26 107 -33 166 -48 215 -55 58 -9 163
-41 192 -59 13 -8 57 -22 98 -31 41 -8 95 -20 120 -25 25 -5 63 -15 85 -21 22
-7 67 -13 100 -14 61 -2 154 -19 190 -34 11 -5 41 -16 67 -25 62 -21 128 -71
165 -127 78 -116 101 -158 107 -190 4 -19 22 -69 41 -110 19 -41 38 -102 44
-135 5 -33 17 -77 25 -97 9 -21 16 -50 16 -66 0 -16 7 -48 15 -72 8 -23 20
-92 25 -153 l11 -111 -26 -23 c-45 -42 -22 -125 26 -95 10 7 20 12 23 12 3 0
6 -20 18 -129 2 -19 -5 -29 -37 -45 -46 -24 -54 -50 -30 -96 15 -29 20 -32 55
-28 l38 3 11 -48 c17 -73 14 -91 -19 -122 -36 -34 -37 -47 -9 -86 14 -20 28
-29 42 -27 18 3 24 -7 41 -65 l19 -68 -31 -32 c-39 -41 -40 -51 -3 -78 37 -27
48 -82 31 -146 -12 -41 -11 -46 10 -76 19 -25 24 -46 27 -110 3 -72 1 -82 -22
-109 -14 -16 -25 -33 -25 -38 0 -24 21 -59 37 -62 16 -3 18 -19 19 -188 4
-331 11 -534 23 -580 15 -65 13 -122 -5 -149 -15 -21 -15 -26 0 -66 18 -45 18
-106 1 -520 -3 -82 -6 -273 -6 -423 -1 -150 -4 -286 -9 -303 -5 -17 -5 -41 1
-57 5 -15 16 -144 24 -287 9 -143 20 -296 25 -340 5 -44 12 -120 15 -170 3
-49 11 -112 16 -140 5 -27 14 -127 19 -222 6 -121 13 -180 24 -202 9 -16 16
-34 16 -39 0 -22 -58 -32 -187 -32 -118 0 -140 -3 -168 -20 -20 -12 -47 -19
-71 -18 -40 1 -74 -11 -109 -42 -11 -9 -54 -31 -95 -49 -70 -31 -190 -116
-190 -134 0 -5 -33 -43 -73 -85 -81 -86 -153 -195 -140 -214 4 -7 6 -89 5
-183 -1 -97 2 -187 8 -210 6 -22 17 -72 24 -111 14 -69 59 -167 98 -210 15
-17 17 -30 12 -61 -5 -35 -3 -43 17 -57 13 -9 33 -16 45 -16 11 0 36 -14 55
-30 74 -65 141 -109 191 -124 29 -9 68 -21 87 -27 35 -12 59 -14 256 -29 179
-14 355 -37 370 -50 7 -6 15 -23 18 -39 9 -45 34 -46 85 -4 44 36 45 37 131
35 47 -1 150 -7 229 -13 78 -6 166 -8 195 -5 28 4 93 9 143 11 49 2 117 12
150 21 85 24 223 36 255 23 21 -8 33 -7 59 10 28 17 52 20 171 20 76 1 149 5
161 10 13 4 57 11 98 15 41 4 95 11 120 16 25 5 74 15 110 22 35 7 79 23 97
35 18 12 59 37 91 54 80 45 150 110 177 166 71 148 85 181 85 199 1 10 7 30
15 44 8 14 14 35 15 46 0 12 10 43 22 70 24 53 30 90 54 324 13 127 13 172 4
248 -14 110 -22 126 -144 265 -100 115 -169 177 -196 177 -11 0 -22 5 -26 11
-9 14 -131 69 -154 69 -11 0 -45 8 -77 17 -65 19 -180 22 -340 9 l-103 -9 -22
29 c-13 15 -26 42 -30 59 -4 16 -21 71 -38 120 -21 59 -33 114 -35 160 -2 39
-11 99 -20 135 -45 174 -57 241 -56 295 1 28 -4 66 -10 85 -6 19 -15 105 -19
190 -5 85 -14 184 -19 220 -6 36 -15 97 -20 135 -6 39 -19 129 -30 200 -11 72
-27 184 -36 250 -9 66 -24 143 -32 170 -15 46 -25 134 -39 345 -4 63 -2 89 8
101 15 19 160 96 238 126 67 26 124 31 400 38 118 3 253 8 300 11 47 3 119 7
160 9 41 2 95 10 119 19 24 9 56 16 71 16 15 0 72 11 126 25 54 14 109 25 121
25 12 0 48 7 80 15 31 8 73 15 93 15 19 0 55 7 79 16 64 22 224 54 264 52 19
-1 39 2 46 6 7 5 36 12 64 17 139 23 150 26 169 53 15 19 28 26 53 26 24 0 38
6 45 19 5 11 35 29 66 41 31 11 65 27 75 34 23 16 124 135 166 196 17 25 43
56 58 70 59 54 155 211 155 253 0 6 11 22 24 36 22 24 56 134 56 180 0 12 25
56 56 98 31 43 71 105 90 138 19 33 59 98 89 145 80 126 113 185 129 227 8 21
26 70 41 108 15 39 38 104 52 145 14 41 32 91 41 110 8 19 19 53 23 75 4 22
17 65 28 95 69 186 83 230 90 270 4 25 14 57 21 72 11 22 10 37 -5 92 -15 57
-17 90 -11 224 6 146 5 161 -15 217 -18 49 -24 93 -30 235 -9 213 -29 315 -82
418 -8 15 -27 68 -42 117 -15 50 -47 140 -70 200 -24 61 -52 139 -64 175 -12
36 -66 155 -121 265 -113 225 -130 255 -182 328 -20 29 -47 67 -60 86 -78 114
-227 215 -403 272 -44 14 -108 40 -142 57 -34 18 -72 32 -83 32 -11 0 -41 11
-67 24 -27 13 -82 34 -123 46 -41 13 -91 29 -110 37 -76 33 -212 55 -425 68
-55 3 -111 8 -125 11 -14 3 -28 2 -31 -1z m272 -105 c142 -18 238 -39 281 -60
9 -5 44 -16 78 -25 64 -17 265 -94 312 -120 14 -8 57 -25 95 -36 87 -27 213
-88 280 -136 67 -48 164 -182 269 -373 108 -195 148 -281 196 -419 22 -64 45
-125 52 -136 7 -11 15 -31 19 -45 3 -14 17 -56 32 -95 123 -325 146 -420 151
-615 2 -103 9 -159 28 -233 23 -90 24 -105 15 -190 -8 -66 -7 -124 1 -207 11
-108 10 -120 -9 -178 -12 -34 -21 -67 -21 -73 0 -7 -9 -31 -20 -55 -11 -24
-29 -64 -40 -88 -11 -24 -20 -50 -20 -59 0 -9 -11 -46 -25 -83 -14 -36 -25
-74 -25 -84 0 -10 -7 -23 -15 -30 -8 -7 -15 -23 -15 -37 0 -13 -7 -37 -15 -52
-8 -16 -19 -51 -25 -77 -15 -66 -95 -236 -144 -307 -55 -77 -108 -160 -147
-227 -47 -81 -77 -111 -106 -104 -20 5 -23 3 -23 -24 0 -41 -50 -114 -103
-151 -23 -16 -97 -84 -164 -150 -67 -67 -130 -121 -140 -121 -10 0 -47 -18
-83 -40 -126 -77 -170 -95 -295 -119 -22 -4 -49 -12 -60 -18 -24 -13 -231 -23
-610 -29 -272 -4 -404 -13 -505 -35 -70 -15 -129 -25 -260 -43 -137 -20 -196
-31 -272 -51 -80 -21 -170 -41 -229 -49 -67 -10 -161 -51 -186 -82 -12 -15
-24 -43 -28 -63 -4 -20 -15 -50 -26 -67 -10 -17 -19 -40 -19 -51 0 -10 -4 -23
-9 -28 -5 -6 -19 -38 -30 -72 -26 -76 -37 -311 -22 -448 25 -222 33 -279 43
-304 6 -14 14 -62 19 -106 5 -44 15 -109 23 -145 9 -36 21 -114 26 -175 6 -60
16 -126 22 -145 17 -52 37 -222 52 -435 8 -120 21 -217 34 -265 11 -41 25
-109 32 -150 7 -41 21 -118 31 -170 10 -52 19 -108 19 -123 0 -35 53 -206 83
-266 12 -25 36 -60 54 -79 30 -32 35 -34 80 -28 207 26 452 11 542 -33 81 -38
204 -136 257 -203 30 -37 58 -70 64 -73 6 -4 23 -30 37 -58 25 -47 28 -62 28
-162 0 -87 -3 -115 -17 -135 -13 -19 -17 -44 -15 -100 1 -66 -2 -82 -30 -135
-17 -33 -44 -72 -60 -86 -29 -26 -146 -99 -159 -99 -9 0 -174 -60 -197 -71
-49 -26 -150 -37 -272 -30 -40 2 -168 -14 -183 -23 -7 -4 -28 -2 -48 3 -30 8
-46 7 -83 -8 -84 -34 -156 -46 -191 -31 -24 10 -40 10 -68 2 -61 -18 -240 -27
-547 -26 -326 0 -621 11 -647 25 -9 5 -39 9 -66 9 -33 0 -64 8 -95 25 -26 13
-62 24 -79 24 -45 -2 -166 50 -205 86 -17 17 -54 48 -80 70 -67 55 -92 87
-112 143 -9 27 -25 61 -35 77 -45 68 -3 334 63 398 18 18 51 51 73 74 35 36
47 43 80 43 21 0 53 -7 70 -16 72 -37 134 11 108 85 -10 28 -10 36 4 49 21 22
125 28 184 11 73 -21 147 -15 248 19 51 17 115 32 143 33 28 2 55 5 59 8 20
13 43 74 37 99 -8 37 -18 297 -16 406 1 48 -5 127 -13 175 -10 57 -12 99 -7
123 5 21 5 55 0 77 -26 116 -43 333 -39 486 1 22 -4 126 -10 230 -7 105 -16
303 -20 440 -5 138 -13 304 -18 370 -6 66 -13 190 -17 275 -3 85 -10 175 -16
200 -5 25 -11 99 -14 165 -3 66 -10 185 -16 265 -5 80 -14 235 -19 345 -5 110
-11 223 -13 250 -2 28 -9 133 -16 235 -6 102 -20 271 -30 375 -10 105 -19 215
-20 245 -1 30 -6 78 -11 105 -5 28 -12 118 -15 200 -4 83 -11 215 -17 295 -5
80 -11 190 -13 245 -2 55 -6 119 -10 142 -6 43 -21 190 -35 348 -10 108 -24
216 -58 425 -15 94 -56 145 -195 248 -27 20 -74 40 -121 52 -73 19 -139 22
-421 20 -136 -2 -155 0 -175 20 -22 22 -45 26 -56 9 -8 -14 -127 -4 -199 16
-156 44 -195 58 -205 70 -6 8 -53 28 -104 45 -102 34 -132 57 -142 110 -4 19
-14 49 -22 65 -10 20 -17 69 -20 141 -4 90 0 126 17 194 11 46 21 94 21 106 0
44 30 138 52 161 12 13 32 23 45 23 30 0 58 43 55 86 -2 30 0 34 23 34 17 0
43 18 84 59 53 53 68 62 143 84 130 39 199 47 388 43 277 -6 338 -26 539 -171
19 -14 44 -25 57 -25 12 0 36 -12 53 -26 17 -14 52 -32 77 -40 25 -7 60 -26
78 -41 17 -16 52 -39 77 -52 l47 -25 123 17 c155 21 214 32 259 47 19 6 73 11
119 11 83 -2 87 -1 190 50 59 29 120 63 136 75 17 12 91 43 165 67 74 25 149
52 165 61 17 9 38 16 47 16 9 0 19 4 22 8 3 5 31 14 63 21 32 7 94 21 138 32
45 10 92 19 105 19 14 0 61 11 105 25 81 26 181 44 290 51 33 3 85 6 115 9 65
4 191 19 350 40 218 29 317 30 511 5z m-4521 -267 c0 -24 -100 -123 -124 -123
-11 0 -46 -5 -78 -12 -44 -9 -61 -9 -70 0 -14 14 16 52 41 52 9 0 32 10 51 22
64 40 143 78 162 78 10 0 18 -7 18 -17z m-166 -245 c3 -13 -2 -38 -13 -58 -10
-19 -21 -47 -25 -62 -6 -27 -7 -28 -65 -22 -49 6 -64 3 -88 -13 -34 -25 -100
-49 -109 -41 -10 11 6 83 27 117 20 33 46 46 114 61 22 5 63 15 90 23 28 8 53
15 56 16 4 0 9 -9 13 -21z m-67 -255 c-3 -16 -11 -63 -18 -105 l-13 -78 -59 0
c-32 0 -71 -6 -85 -14 -15 -8 -46 -20 -70 -27 -59 -17 -66 -7 -57 75 6 60 10
68 35 81 16 8 37 15 47 15 10 0 27 6 38 14 11 7 44 21 72 30 29 10 55 22 58
27 4 5 18 9 31 9 22 0 25 -3 21 -27z m-19 -307 c16 -36 25 -93 18 -120 -5 -22
-52 -49 -125 -71 -13 -4 -45 -20 -71 -35 -26 -15 -52 -25 -57 -21 -14 9 -32
88 -35 154 l-3 59 50 19 c28 10 68 19 90 19 22 0 47 5 55 10 28 18 66 12 78
-14z m116 -261 c11 -8 29 -15 41 -15 25 0 67 -28 63 -42 -4 -11 -174 -77 -201
-78 -10 0 -31 -7 -46 -15 -16 -8 -46 -17 -68 -21 -37 -6 -41 -4 -76 39 l-37
45 53 24 c28 13 68 30 87 37 19 7 51 19 70 27 46 17 90 17 114 -1z m358 -141
c29 -6 43 -28 25 -41 -7 -5 -34 -14 -60 -21 -26 -7 -60 -21 -75 -31 -15 -10
-49 -24 -77 -31 -60 -16 -75 -26 -75 -52 0 -28 -27 -33 -68 -14 -20 10 -61 22
-91 27 -58 9 -85 26 -73 45 8 14 197 78 292 100 35 9 71 20 80 25 14 8 53 6
122 -7z m378 -72 l65 -7 -43 -17 c-23 -10 -50 -18 -60 -18 -9 0 -62 -17 -117
-37 -55 -19 -125 -44 -155 -55 -30 -11 -64 -28 -76 -39 -33 -31 -114 -20 -114
16 0 14 28 32 120 75 25 12 53 29 63 38 11 10 32 15 53 14 26 -2 44 4 66 23
28 24 37 26 82 21 28 -4 80 -10 116 -14z m532 -16 c43 -7 81 -16 85 -20 11
-10 -18 -26 -47 -26 -15 0 -30 -4 -35 -9 -6 -5 -55 -17 -110 -26 -166 -29
-177 -31 -255 -53 -75 -21 -216 -70 -277 -97 -21 -9 -50 -12 -87 -8 -46 5 -56
9 -56 24 0 11 6 19 13 19 6 0 23 6 37 13 28 15 99 38 180 61 30 8 75 21 100
30 25 8 73 23 108 33 34 9 62 21 62 25 0 5 15 17 33 28 38 24 129 26 249 6z
m223 -126 c15 -22 26 -42 24 -45 -3 -2 -27 -9 -54 -16 -56 -13 -148 -45 -277
-95 -49 -19 -92 -34 -98 -34 -5 0 -25 -8 -45 -17 -33 -16 -38 -16 -63 -1 -15
9 -53 24 -84 33 -63 18 -77 41 -30 50 15 3 41 10 57 16 17 6 86 24 155 40 69
16 139 34 156 39 17 6 41 10 55 10 13 1 47 7 74 14 39 10 52 19 59 39 12 33
32 24 71 -33z m59 -155 c3 -8 8 -37 12 -65 6 -43 4 -50 -11 -50 -9 0 -49 -15
-89 -33 -39 -19 -92 -42 -118 -52 -26 -10 -52 -23 -58 -30 -14 -17 9 -95 28
-95 7 0 48 20 91 45 83 47 166 74 181 59 7 -8 15 -97 11 -130 -1 -12 -112 -84
-129 -84 -6 0 -29 -16 -52 -35 -23 -19 -50 -35 -60 -35 -22 0 -40 46 -40 101
0 47 -8 69 -26 69 -20 0 -83 87 -95 132 -7 27 -20 45 -40 56 -33 20 -36 28
-11 35 9 3 62 22 117 42 150 54 188 65 207 59 10 -3 28 2 40 10 28 20 34 20
42 1z m64 -487 c5 -7 13 -38 16 -69 l7 -55 -63 -38 c-35 -21 -85 -46 -113 -57
-47 -18 -51 -18 -62 -2 -21 27 -17 91 6 98 11 3 31 21 46 40 14 20 52 48 83
64 67 35 67 34 80 19z m37 -288 c11 -52 -1 -67 -97 -114 -50 -26 -95 -46 -99
-46 -4 0 -9 16 -11 36 -4 38 21 84 46 84 7 0 35 16 62 35 62 44 90 46 99 5z
m23 -248 c4 -68 -8 -82 -68 -82 -26 0 -62 -7 -80 -16 -39 -20 -50 -10 -50 49
0 30 4 40 20 44 10 3 45 18 77 33 84 41 97 37 101 -28z m-2 -193 c10 -16 23
-137 29 -259 3 -58 6 -121 8 -140 2 -33 0 -35 -27 -33 -16 1 -42 -5 -58 -13
-36 -19 -58 -12 -58 18 -1 13 -7 34 -15 48 -18 31 -19 82 -3 98 7 7 31 12 55
12 36 0 44 4 56 28 12 23 12 32 0 61 -15 36 -24 37 -90 10 -18 -7 -35 -11 -38
-8 -11 12 -35 123 -30 140 10 32 155 64 171 38z m55 -564 c4 -16 7 -56 8 -88
1 -47 -2 -59 -16 -63 -10 -4 -36 -15 -57 -25 -47 -22 -57 -18 -55 24 0 18 -3
49 -6 69 -11 54 0 82 37 101 50 25 82 18 89 -18z m23 -247 c19 -127 18 -130
-39 -141 -74 -14 -70 -16 -73 36 -3 45 -2 48 27 58 17 6 31 18 31 27 0 17 28
52 41 52 4 0 10 -15 13 -32z m16 -255 c0 -27 3 -71 6 -100 6 -50 6 -52 -24
-67 -65 -33 -85 -19 -97 71 -6 43 -4 54 12 67 61 54 89 75 96 76 4 0 7 -21 7
-47z m14 -279 c12 -11 16 -35 16 -88 l0 -73 -51 -23 c-70 -33 -84 -23 -84 60
0 62 1 63 45 101 51 44 53 45 74 23z m25 -318 c16 -65 14 -75 -16 -82 -16 -3
-45 -13 -65 -21 -31 -13 -40 -13 -53 -3 -26 22 -17 49 35 100 63 64 84 65 99
6z m3579 -63 c-6 -16 -25 -45 -41 -66 -27 -36 -28 -39 -13 -63 16 -23 16 -25
-11 -35 -15 -6 -44 -20 -64 -30 -98 -51 -80 8 40 132 47 49 89 89 93 89 4 0 2
-12 -4 -27z m-248 -73 c0 -5 -18 -19 -39 -30 -22 -11 -46 -28 -53 -38 -7 -10
-25 -27 -40 -36 -31 -20 -36 -47 -13 -66 9 -7 15 -23 13 -34 -3 -19 -12 -22
-78 -27 -41 -3 -88 -11 -103 -17 -38 -16 -77 -15 -77 1 0 8 46 61 103 118 84
85 113 107 153 120 56 19 134 24 134 9z m-3316 -97 c5 -46 4 -58 -11 -69 -23
-16 -91 -50 -120 -59 -21 -6 -23 -3 -23 35 0 27 8 53 21 72 28 38 97 88 113
82 8 -3 16 -30 20 -61z m2944 46 c5 -26 -41 -82 -96 -118 -47 -31 -52 -37 -52
-71 0 -48 -12 -57 -86 -65 -93 -11 -94 22 -3 81 20 12 46 39 59 58 12 20 28
36 35 36 15 0 25 22 25 54 0 34 20 47 70 44 31 -2 46 -8 48 -19z m-248 -16 c0
-43 -245 -284 -314 -309 -34 -12 -56 -8 -56 10 0 14 92 96 130 116 14 7 34 22
46 34 11 12 37 34 57 49 38 29 48 63 22 73 -38 15 -113 -18 -192 -84 -114 -96
-136 -112 -149 -112 -27 0 -44 -32 -44 -81 l0 -49 -46 0 c-100 0 -111 42 -31
117 58 55 94 77 145 88 41 9 57 36 43 76 -8 22 -7 35 2 50 23 37 58 44 225 45
l162 2 0 -25z m-510 -3 c0 -18 -353 -357 -368 -353 -4 1 -39 -2 -77 -7 -38 -5
-72 -7 -76 -4 -19 12 12 51 95 119 128 106 136 114 136 141 0 13 -9 29 -20 36
-29 19 -25 38 9 38 17 0 33 5 36 10 4 6 28 11 53 10 37 -1 167 11 205 19 4 0
7 -3 7 -9z m-400 -75 c0 -9 -11 -26 -24 -38 -12 -12 -75 -73 -139 -135 -111
-107 -119 -113 -167 -119 -42 -5 -50 -3 -50 11 0 9 15 25 33 36 32 20 164 138
241 217 31 32 49 42 74 43 22 0 32 -5 32 -15z m-480 -88 c0 -13 -151 -158
-172 -166 -18 -6 -2 66 22 99 12 17 30 30 40 30 10 0 20 7 24 15 10 28 86 47
86 22z m-1295 -153 l0 -99 -45 -6 c-25 -4 -51 -9 -58 -10 -15 -4 -24 9 -41 62
-17 53 -14 77 12 90 12 6 32 20 43 31 20 18 73 38 84 33 3 -2 5 -47 5 -101z
m1335 26 c-11 -21 -22 -25 -33 -13 -9 9 12 33 30 33 11 0 11 -4 3 -20z m-60
-53 c0 -7 -11 -29 -25 -50 -18 -26 -33 -37 -50 -37 -34 0 -31 12 13 60 39 40
62 51 62 27z m-1264 -200 c3 -13 4 -41 2 -63 -2 -32 -9 -43 -43 -65 -22 -15
-51 -29 -65 -30 -22 -4 -25 0 -31 41 -3 25 -5 60 -5 79 1 31 5 35 41 47 66 20
94 17 101 -9z m-1 -236 c8 -15 -24 -41 -50 -41 -29 0 -24 22 8 38 28 14 35 14
42 3z m38 -164 c6 -42 2 -50 -36 -72 -18 -10 -48 -31 -68 -47 -20 -16 -49 -30
-65 -31 -28 -2 -29 -1 -27 46 1 36 7 52 25 68 33 29 138 79 153 73 7 -3 15
-20 18 -37z m12 -199 c3 -18 5 -60 3 -93 l-3 -60 -41 -5 c-27 -4 -56 -19 -86
-43 -55 -46 -74 -47 -82 -6 -12 61 -7 79 24 97 17 9 32 24 35 33 5 16 122 109
137 109 4 0 10 -15 13 -32z m8 -279 c16 -25 -1 -87 -25 -95 -11 -3 -39 -20
-62 -38 -52 -39 -122 -64 -138 -48 -6 6 -11 28 -12 49 -1 32 2 38 24 43 29 6
71 34 109 72 37 37 86 45 104 17z m2 -240 c1 -19 4 -44 8 -55 11 -31 -58 -94
-150 -141 -92 -46 -105 -41 -101 34 3 55 5 58 30 61 16 2 42 18 60 38 39 42
129 105 143 100 6 -1 10 -18 10 -37z m15 -238 c9 -17 3 -25 -37 -56 -25 -19
-57 -38 -69 -41 -13 -3 -25 -16 -28 -31 -8 -30 -86 -70 -98 -50 -19 29 -7 46
50 72 33 15 62 35 67 48 9 19 80 76 97 77 4 0 12 -9 18 -19z m-2 -169 c9 -6
11 -24 6 -66 -6 -51 -11 -60 -43 -82 -20 -13 -39 -24 -43 -24 -5 0 -37 -14
-73 -31 -36 -17 -69 -28 -75 -24 -20 12 -10 36 19 46 17 6 34 22 41 39 12 29
131 150 147 150 4 0 14 -4 21 -8z m2 -266 c0 -20 -17 -37 -82 -82 -81 -56
-117 -70 -125 -48 -6 18 78 105 126 129 62 31 81 31 81 1z m33 -192 l2 -49
-40 -5 c-22 -4 -50 -11 -62 -18 -12 -7 -31 -12 -43 -12 -17 0 -20 4 -15 23 4
12 18 31 32 42 14 11 44 35 66 53 47 39 58 33 60 -34z m12 -123 c3 -5 2 -35
-1 -65 -6 -53 -9 -56 -41 -65 -18 -5 -55 -22 -81 -38 -64 -40 -84 -46 -94 -31
-25 41 10 88 122 163 67 45 85 52 95 36z m21 -257 c4 -20 1 -53 -5 -75 -9 -29
-9 -44 -1 -60 16 -29 4 -69 -19 -69 -11 0 -43 -20 -72 -45 -58 -50 -83 -56
-99 -24 -25 45 7 85 93 115 54 19 77 41 77 74 0 40 -22 54 -75 47 -64 -9 -59
15 10 52 60 32 83 28 91 -15z m-1051 -903 c3 -5 2 -35 -1 -67 -7 -52 -12 -61
-58 -106 -81 -77 -113 -55 -85 60 9 37 19 57 33 63 12 5 36 21 55 34 37 27 47
30 56 16z m0 -291 c3 -11 4 -28 1 -38 -8 -25 -124 -125 -136 -117 -19 12 -10
67 16 99 28 34 82 75 101 75 6 1 15 -8 18 -19z m75 -150 c0 -5 16 -27 35 -49
19 -21 35 -43 35 -49 0 -27 -26 -63 -64 -88 -23 -14 -53 -40 -67 -56 -32 -38
-57 -32 -87 21 -28 49 -28 75 1 88 12 6 29 23 37 39 32 65 65 104 88 104 12 0
22 -4 22 -10z m3030 -184 c0 -18 -15 -36 -31 -36 -12 0 -19 7 -19 20 0 15 7
20 25 20 14 0 25 -2 25 -4z m-2812 -26 c17 -11 32 -25 32 -32 0 -6 -27 -37
-60 -67 -33 -31 -70 -76 -83 -101 -35 -67 -49 -65 -114 13 -29 35 -29 61 0 84
13 10 34 33 47 51 13 17 31 32 41 32 9 0 27 9 40 20 31 25 56 25 97 0z m2690
-107 c-70 -96 -101 -133 -112 -133 -5 0 -20 -9 -32 -21 -15 -14 -29 -19 -43
-14 -31 9 -26 21 23 57 24 18 52 46 62 61 11 15 31 31 46 34 14 3 41 20 59 39
18 19 34 34 36 34 2 0 -15 -26 -39 -57z m-148 38 c0 -6 -4 -13 -10 -16 -5 -3
-10 1 -10 9 0 9 5 16 10 16 6 0 10 -4 10 -9z m-2297 -23 c12 -7 40 -14 62 -17
63 -9 58 -33 -17 -81 -82 -53 -126 -94 -134 -124 -8 -34 -27 -38 -111 -24 -93
15 -97 26 -44 115 44 74 87 108 161 129 59 16 58 16 83 2z m2055 -3 c7 -7 -41
-75 -64 -89 -13 -9 -24 -23 -24 -30 0 -7 -10 -25 -21 -40 -18 -23 -20 -31 -10
-52 14 -31 10 -33 -104 -36 -65 -2 -90 0 -90 9 0 7 38 52 85 101 47 49 93 101
102 115 19 27 55 38 98 30 14 -3 26 -6 28 -8z m-265 -17 c-8 -31 -37 -69 -118
-153 -37 -38 -74 -78 -82 -87 -19 -21 -95 -34 -119 -20 -15 8 -6 21 67 90 46
45 100 88 119 97 19 9 44 31 55 48 17 26 41 41 77 46 3 1 4 -9 1 -21z m-1484
-37 c11 -7 8 -17 -18 -50 -18 -22 -52 -58 -77 -79 -31 -28 -44 -47 -44 -65 0
-14 -7 -30 -16 -35 -17 -10 -82 1 -115 19 -19 10 -26 39 -10 39 5 0 24 12 42
28 36 30 211 152 219 152 3 0 11 -4 19 -9z m935 3 c44 -17 -16 -95 -136 -178
-35 -24 -63 -52 -74 -75 -9 -20 -22 -39 -28 -43 -18 -12 -71 -9 -91 5 -38 28
-1 84 113 170 128 97 147 110 171 117 14 5 27 9 28 9 1 1 8 -2 17 -5z m276 -9
c0 -18 -48 -69 -135 -144 -32 -29 -65 -65 -71 -81 -15 -35 -49 -46 -107 -34
l-42 9 60 59 c33 33 93 86 133 118 41 32 81 65 89 73 20 20 73 20 73 0z m-792
-17 c-3 -7 -38 -35 -79 -63 -70 -47 -74 -52 -75 -88 -1 -29 -9 -46 -35 -73
l-33 -34 -76 6 c-87 8 -173 27 -177 40 -6 17 98 118 176 171 l76 52 113 0 c86
1 113 -2 110 -11z m161 -89 c-23 -32 -74 -69 -97 -69 -23 0 -9 19 43 59 62 49
85 53 54 10z m1216 -9 c8 -49 2 -60 -37 -60 -28 0 -30 2 -24 26 7 28 36 73 48
74 3 0 9 -18 13 -40z m-1327 -124 l-3 -31 -67 -3 c-38 -2 -68 1 -68 6 0 17 54
52 100 65 28 8 41 -5 38 -37z"/>
<path d="M26104 9938 c-27 -4 -177 -10 -333 -12 -157 -3 -305 -10 -330 -15
-82 -17 -325 -51 -369 -51 -23 0 -50 -4 -60 -9 -9 -5 -70 -26 -135 -47 -111
-35 -191 -78 -203 -108 -3 -8 8 -40 25 -71 36 -68 42 -140 14 -161 -17 -12
-16 -13 8 -22 27 -11 43 -41 54 -102 4 -19 13 -44 19 -55 8 -11 16 -73 19
-145 4 -69 12 -195 18 -280 7 -85 11 -175 11 -200 -2 -116 -12 -249 -21 -272
-6 -15 -8 -102 -5 -209 3 -101 7 -267 10 -369 2 -102 9 -205 14 -230 5 -25 14
-153 20 -286 5 -133 14 -254 19 -270 5 -16 12 -90 15 -165 3 -81 12 -153 21
-179 8 -23 15 -76 15 -117 0 -62 5 -83 31 -134 27 -55 73 -106 119 -134 9 -5
32 -20 51 -32 19 -13 41 -23 50 -23 9 0 47 -9 85 -21 64 -20 75 -20 223 -9
124 10 173 19 239 41 46 16 92 29 103 29 11 0 37 9 59 20 34 18 76 27 254 60
28 5 70 16 95 24 106 35 146 46 164 46 11 0 36 10 56 22 20 13 63 33 96 45 33
12 85 31 115 43 163 66 179 71 244 73 57 2 71 6 86 25 10 12 28 22 40 22 13 0
27 11 37 28 9 16 42 46 72 66 31 21 71 48 90 62 19 13 44 24 57 24 13 0 28 9
34 19 5 11 35 53 65 93 117 156 203 385 221 593 3 39 16 113 29 165 13 52 27
115 30 140 4 25 11 72 16 105 16 109 27 355 18 418 -8 59 -12 81 -40 222 -6
33 -15 89 -20 125 -4 36 -12 85 -18 110 -5 25 -16 81 -25 125 -22 115 -35 165
-57 207 -10 20 -19 45 -19 55 0 26 -28 103 -50 138 -11 17 -35 73 -54 124 -34
87 -41 97 -116 168 -44 42 -100 91 -124 109 -51 39 -158 84 -199 84 -16 0 -41
9 -56 19 -15 11 -59 24 -102 30 -42 6 -88 15 -103 21 -15 5 -49 10 -76 10 -27
0 -61 5 -77 11 -32 13 -395 18 -469 7z m-32 -114 c13 -12 -155 -143 -185 -145
-7 0 -29 -22 -50 -50 l-37 -49 -70 0 c-84 0 -95 12 -54 64 18 22 63 52 133 87
136 68 171 82 252 98 3 0 8 -2 11 -5z m228 -28 c0 -17 -54 -59 -123 -95 -43
-22 -53 -32 -55 -57 -4 -38 36 -79 66 -70 11 4 52 35 91 70 39 35 88 73 109
83 20 11 60 34 88 52 42 26 60 32 95 29 49 -3 49 -4 -34 -61 -222 -151 -236
-162 -253 -199 -19 -43 -35 -46 -79 -19 -29 17 -56 22 -193 38 -62 7 -71 16
-40 42 13 10 47 40 77 64 29 25 76 57 105 71 28 13 65 34 81 45 35 23 65 27
65 7z m-823 -23 c8 -20 -30 -53 -61 -53 -26 0 -86 -83 -86 -118 0 -28 -3 -29
-92 -37 -73 -7 -78 -6 -78 12 0 26 74 83 250 196 33 21 59 21 67 0z m1329 -2
c154 -46 163 -53 113 -78 -59 -31 -218 -102 -264 -118 -93 -34 -113 -58 -80
-101 32 -42 14 -65 -37 -45 -13 5 -43 15 -67 22 -60 18 -73 47 -39 94 28 39
74 76 133 104 22 11 55 31 74 45 19 15 40 26 45 26 6 0 27 14 46 30 40 34 37
33 76 21z m-1676 -63 c0 -6 -24 -37 -52 -67 -29 -31 -58 -65 -63 -75 -9 -16
-24 -19 -98 -19 -101 -1 -136 14 -64 27 16 3 46 20 67 38 64 55 97 78 132 93
40 17 78 19 78 3z m1920 -8 c22 -11 40 -27 40 -34 0 -40 -73 -48 -78 -8 -2 12
-12 27 -23 32 -10 6 -19 15 -19 20 0 16 38 11 80 -10z m-1487 -62 c3 -24 4
-44 2 -46 -7 -8 -85 -14 -99 -9 -18 7 -10 37 9 37 8 0 23 14 35 30 30 42 46
38 53 -12z m1417 -49 c-19 -17 -79 -69 -133 -117 -134 -119 -137 -120 -182
-99 -53 25 -48 53 15 80 27 11 53 29 56 40 3 10 22 25 42 34 56 23 135 64 152
79 14 12 70 23 80 16 3 -2 -11 -17 -30 -33z m258 -52 c29 -42 62 -101 62 -112
0 -3 -11 -5 -25 -5 -13 0 -39 -13 -57 -29 -18 -15 -49 -36 -68 -46 -19 -9 -44
-25 -55 -35 -11 -9 -42 -29 -70 -45 -27 -15 -62 -39 -77 -52 -33 -32 -56 -27
-86 17 -13 19 -28 36 -33 36 -5 1 -13 2 -19 3 -25 3 -6 43 38 80 235 202 313
256 344 240 9 -5 30 -28 46 -52z m-1448 -77 c239 -13 357 -29 410 -55 14 -7
49 -15 77 -19 29 -4 74 -16 100 -27 27 -12 68 -27 93 -35 73 -22 219 -115 297
-188 45 -43 86 -93 108 -134 32 -58 35 -68 25 -93 -15 -35 -11 -42 45 -68 41
-19 105 -89 105 -114 0 -6 16 -34 36 -62 35 -51 57 -117 94 -280 10 -44 25
-100 35 -125 9 -25 21 -67 25 -95 4 -27 15 -75 25 -105 9 -30 20 -93 23 -140
4 -47 13 -95 20 -107 18 -32 16 -177 -3 -193 -25 -20 -19 -79 10 -106 24 -22
25 -28 19 -91 -5 -48 -13 -75 -27 -90 -18 -20 -19 -26 -7 -48 11 -21 11 -32 2
-59 -7 -18 -12 -42 -12 -54 0 -35 -38 -134 -59 -156 -16 -15 -17 -24 -9 -47
12 -36 1 -52 -56 -81 -23 -12 -55 -31 -72 -44 -17 -13 -34 -24 -38 -24 -4 0
-20 -10 -36 -21 -16 -12 -57 -28 -92 -35 -60 -12 -144 -43 -198 -74 -38 -22
-227 -98 -299 -120 -36 -11 -69 -24 -75 -29 -15 -11 -151 -52 -206 -62 -174
-31 -251 -47 -262 -56 -17 -15 -157 -58 -238 -74 -143 -28 -320 -31 -401 -6
-122 37 -218 160 -224 287 -2 30 -8 82 -14 115 -22 115 -48 438 -56 695 -3 96
-12 256 -20 355 -26 336 -22 656 10 772 12 40 13 70 6 140 -5 48 -12 95 -15
103 -4 8 -8 74 -11 145 -6 186 -22 407 -30 431 -4 12 -1 25 7 31 7 6 84 14
178 17 91 4 179 9 195 11 17 3 83 9 148 14 65 5 121 11 124 15 4 3 20 4 37 1
17 -3 110 -10 206 -15z m1567 -137 c11 -26 19 -52 17 -58 -3 -5 -36 -26 -76
-45 -70 -35 -155 -91 -193 -129 -43 -43 -105 -48 -105 -9 0 23 86 128 106 128
17 0 105 63 163 117 25 24 51 43 57 43 5 0 20 -21 31 -47z m73 -189 c6 -14 10
-35 10 -46 0 -12 7 -29 16 -39 16 -18 57 -205 48 -220 -3 -5 -16 -9 -30 -9
-13 0 -32 -9 -41 -20 -10 -11 -25 -20 -34 -20 -9 0 -37 -16 -62 -35 -29 -22
-57 -35 -76 -35 -36 0 -38 6 -13 32 52 58 72 74 108 87 71 25 90 56 57 93 -21
23 -49 23 -98 -2 -22 -11 -46 -20 -55 -20 -8 0 -26 -13 -40 -30 -16 -20 -38
-33 -61 -36 -35 -6 -36 -5 -64 51 l-29 57 26 22 c26 21 96 66 147 96 14 8 37
26 49 38 24 24 97 61 120 62 7 0 17 -12 22 -26z m112 -439 c4 -22 7 -57 7 -77
1 -35 -1 -37 -47 -52 -27 -9 -73 -32 -103 -51 -84 -54 -128 -42 -129 36 0 45
21 65 120 113 41 21 84 46 95 57 29 29 49 20 57 -26z m43 -270 c3 -35 4 -69 0
-75 -3 -5 -22 -10 -42 -10 -25 0 -53 -12 -95 -40 -68 -45 -74 -47 -100 -23
-24 21 -23 50 2 63 11 6 20 17 20 24 0 21 56 64 100 77 22 7 47 20 56 31 34
37 51 23 59 -47z m25 -207 c0 -19 -6 -30 -17 -34 -10 -3 -29 -11 -43 -19 -44
-25 -147 -75 -153 -75 -4 0 -7 10 -7 23 0 31 66 92 136 127 66 32 84 27 84
-22z m-22 -186 c3 -27 -5 -40 -59 -92 -42 -41 -70 -60 -86 -60 -24 0 -25 2
-18 37 4 21 13 49 21 64 14 27 110 91 129 85 6 -1 11 -17 13 -34z m-40 -241
c3 -8 -1 -12 -9 -9 -7 2 -15 10 -17 17 -3 8 1 12 9 9 7 -2 15 -10 17 -17z
m-33 -229 c-18 -87 -21 -92 -49 -92 -19 0 -25 6 -28 32 -7 47 7 88 44 127 29
31 32 32 39 15 3 -11 1 -48 -6 -82z"/>
<path d="M14432 10545 c-29 -7 -90 -16 -135 -20 -49 -4 -105 -17 -139 -31 -32
-13 -65 -24 -74 -24 -23 0 -133 -62 -229 -129 -44 -31 -102 -69 -129 -85 -67
-39 -106 -87 -132 -161 -12 -34 -40 -91 -63 -127 -22 -36 -41 -70 -41 -77 0
-6 -9 -24 -19 -39 -41 -58 -57 -310 -28 -442 24 -111 32 -133 63 -176 62 -85
98 -124 138 -150 22 -15 53 -38 67 -53 47 -47 107 -91 125 -91 9 0 55 -15 103
-34 84 -34 236 -77 316 -90 22 -4 78 -22 125 -41 47 -18 96 -36 110 -40 57
-16 190 -123 190 -153 0 -4 -14 -15 -30 -24 -51 -29 -32 -72 48 -112 36 -18
44 -34 60 -111 6 -27 13 -62 16 -77 5 -22 0 -33 -29 -59 -39 -36 -43 -54 -19
-87 11 -16 24 -21 47 -19 26 2 32 -2 34 -18 7 -92 25 -262 33 -315 15 -106 32
-279 36 -368 2 -45 8 -99 14 -120 15 -54 12 -135 -5 -158 -22 -29 -18 -56 12
-80 32 -25 51 -102 52 -204 1 -63 0 -66 -30 -84 -16 -10 -38 -33 -47 -52 -22
-48 -9 -68 50 -72 l46 -3 7 -72 c13 -129 21 -504 17 -797 -1 -30 0 -71 1 -90
l2 -35 -85 -12 c-47 -7 -98 -14 -115 -17 -16 -3 -86 -13 -155 -21 -91 -11
-138 -22 -173 -40 -27 -14 -55 -25 -63 -25 -8 0 -19 -9 -26 -21 -15 -24 -105
-72 -168 -89 -71 -19 -106 -69 -170 -237 -17 -45 -40 -94 -52 -108 -19 -25
-20 -32 -10 -71 7 -25 12 -62 12 -83 0 -22 4 -61 10 -88 5 -26 17 -86 26 -133
29 -152 32 -164 49 -215 9 -27 23 -65 32 -83 13 -26 14 -37 5 -58 -7 -13 -12
-33 -12 -43 0 -24 31 -51 59 -51 12 0 36 -14 54 -30 59 -56 135 -98 229 -125
94 -28 144 -36 343 -55 61 -5 142 -15 180 -20 39 -6 104 -15 145 -19 41 -5
111 -14 155 -21 44 -6 96 -9 115 -6 19 3 59 -1 87 -8 47 -13 224 -12 463 2 14
1 122 6 240 11 118 5 256 14 307 21 84 10 94 10 133 -9 45 -22 66 -19 75 10 8
26 28 35 112 52 79 16 126 41 190 99 24 21 47 38 53 38 5 0 52 39 102 86 87
79 146 162 148 203 0 8 6 22 14 30 26 31 44 129 65 363 5 57 15 107 24 121 11
18 13 34 6 68 -4 24 -8 86 -9 138 0 86 -3 100 -34 165 -34 70 -105 156 -130
156 -7 0 -25 14 -41 30 -20 21 -38 30 -62 30 -18 0 -47 6 -65 14 -64 28 -195
55 -308 65 -63 5 -135 14 -160 20 -25 6 -74 16 -109 21 -102 16 -107 19 -144
73 -50 75 -56 89 -63 153 -3 33 -13 70 -22 84 -9 14 -20 50 -24 80 -4 30 -13
80 -18 110 -6 30 -13 90 -17 133 -6 87 13 405 27 452 6 19 6 50 -1 85 -5 30
-14 96 -18 145 -9 88 -17 141 -47 280 -39 185 -50 284 -48 445 3 374 2 357 28
382 14 13 50 76 81 140 51 107 62 122 124 175 87 74 248 191 303 221 23 12 52
31 63 41 11 10 61 40 110 66 50 26 106 56 125 66 30 16 149 45 323 79 31 6 55
6 67 0 13 -7 29 -5 55 6 33 13 57 14 189 4 83 -6 169 -16 191 -22 98 -25 274
-160 346 -265 26 -37 75 -176 135 -377 14 -50 15 -64 4 -90 -23 -56 -19 -78
17 -88 37 -10 46 -36 45 -142 0 -62 3 -71 29 -99 27 -28 29 -36 29 -106 0 -48
5 -84 14 -96 13 -20 39 -133 38 -170 0 -11 -4 -33 -7 -48 -6 -21 -2 -34 12
-50 24 -26 40 -164 49 -402 2 -82 9 -181 15 -220 5 -38 7 -89 4 -113 -4 -23
-1 -58 5 -76 17 -53 18 -200 1 -220 -10 -12 -11 -20 -4 -24 6 -4 13 -80 16
-192 3 -102 8 -216 11 -255 3 -38 8 -116 12 -171 l6 -102 -38 -12 c-22 -7 -48
-19 -59 -25 -11 -7 -52 -20 -91 -30 -72 -18 -72 -18 -99 3 -15 12 -39 22 -53
22 -14 0 -82 -29 -153 -65 -70 -36 -135 -65 -143 -65 -24 0 -95 -69 -118 -114
-11 -23 -26 -48 -33 -56 -16 -19 -63 -150 -75 -210 -24 -123 -8 -281 45 -450
13 -41 26 -89 30 -107 3 -18 24 -59 46 -93 21 -33 45 -75 53 -93 23 -53 78
-104 127 -117 69 -19 236 -50 319 -60 41 -5 98 -14 125 -20 28 -6 73 -16 100
-22 28 -6 165 -12 305 -13 140 -2 275 -6 300 -9 56 -9 208 -9 275 -2 74 9 162
14 330 21 271 11 319 14 385 24 36 5 115 13 175 16 186 11 210 18 282 88 46
44 75 83 109 150 l46 91 -7 250 c-10 415 -10 428 -5 506 6 110 -7 266 -26 303
-21 40 -31 47 -70 47 -32 0 -64 26 -64 51 0 8 -15 29 -33 47 -43 41 -94 51
-312 57 -93 2 -226 11 -293 19 -230 27 -259 70 -267 396 -2 69 -9 141 -14 160
-6 19 -11 71 -11 115 0 44 -7 108 -15 143 -8 35 -20 113 -26 175 -6 62 -15
139 -20 172 -13 91 -27 216 -39 355 -7 69 -16 157 -21 195 -21 156 -32 320
-33 510 -1 119 -6 214 -13 235 -6 19 -15 73 -18 120 -4 47 -13 114 -21 149 -8
35 -12 73 -8 83 3 10 -1 29 -9 42 -8 12 -13 34 -10 49 3 14 0 41 -7 59 -21 54
-32 135 -37 263 -3 90 -9 130 -23 160 -11 22 -22 72 -26 110 -4 39 -13 83 -21
99 -9 16 -24 54 -34 85 -11 31 -37 85 -59 121 -21 36 -46 85 -55 109 -8 24
-31 61 -50 82 -19 22 -35 47 -35 57 0 11 -9 27 -19 36 -11 10 -25 32 -32 49
-18 46 -77 135 -97 146 -15 8 -72 87 -125 173 -10 15 -36 41 -60 58 -60 44
-180 120 -190 120 -5 0 -23 6 -40 14 -127 56 -499 144 -642 151 -27 2 -77 8
-110 15 -64 13 -289 7 -439 -12 -44 -5 -99 -9 -121 -8 -21 0 -60 -4 -85 -9
-119 -26 -218 -43 -283 -48 -42 -4 -106 -19 -152 -36 -44 -16 -96 -32 -115
-36 -19 -4 -49 -15 -67 -24 -18 -9 -53 -17 -78 -17 -50 0 -182 -59 -238 -106
-16 -14 -43 -28 -60 -31 -18 -4 -58 -33 -101 -73 -74 -70 -114 -90 -177 -90
-50 0 -88 15 -124 50 -16 16 -52 40 -80 55 -27 14 -61 37 -75 50 -61 57 -166
118 -243 141 -44 13 -81 24 -82 24 -1 0 -16 22 -32 49 -30 47 -32 49 -89 55
-164 20 -240 27 -359 32 l-130 6 -36 39 c-40 43 -51 45 -137 24z m-112 -127
c0 -10 -102 -58 -124 -58 -8 0 -58 -18 -111 -39 -85 -35 -126 -43 -125 -22 1
17 77 61 123 71 29 7 75 22 102 35 28 12 56 24 64 27 22 6 71 -3 71 -14z
m3503 -12 c40 -8 83 -15 97 -14 32 1 253 -48 279 -62 11 -5 32 -10 48 -10 30
0 106 -26 188 -65 28 -13 66 -30 85 -38 44 -18 141 -106 182 -165 17 -25 37
-52 45 -61 39 -45 83 -104 83 -112 0 -4 14 -24 30 -43 28 -31 69 -102 123
-211 11 -22 26 -47 32 -55 6 -8 18 -31 25 -50 14 -35 20 -46 78 -133 32 -47
48 -93 79 -227 8 -36 23 -100 34 -143 10 -43 19 -111 19 -151 0 -41 9 -127 20
-191 11 -64 20 -131 20 -148 0 -18 7 -57 15 -87 44 -160 58 -265 65 -510 7
-247 25 -443 61 -646 12 -69 19 -157 19 -232 0 -69 6 -148 14 -184 8 -35 18
-117 21 -183 4 -66 15 -151 25 -190 20 -75 34 -217 50 -513 9 -162 13 -189 34
-231 40 -77 123 -124 241 -136 39 -3 124 -13 190 -22 66 -8 174 -15 240 -16
142 -2 177 -15 216 -79 15 -24 32 -72 38 -108 19 -99 32 -161 42 -200 11 -46
14 -233 4 -250 -5 -8 -14 -58 -21 -112 -23 -177 -40 -212 -124 -257 -60 -32
-71 -34 -150 -33 -47 1 -134 -7 -195 -17 -95 -16 -114 -16 -137 -5 -37 19 -46
18 -90 -12 l-38 -27 -164 22 c-91 11 -191 21 -223 21 -32 0 -110 6 -173 14
-133 17 -269 22 -420 17 -30 -1 -122 0 -205 2 -158 4 -240 20 -257 50 -5 9
-21 17 -35 17 -16 0 -42 15 -69 40 -24 22 -47 40 -51 40 -5 0 -16 21 -27 46
-10 25 -29 58 -41 72 -12 15 -30 51 -40 79 l-19 53 33 34 c28 29 31 37 22 54
-6 11 -21 22 -33 24 -36 5 -30 86 13 174 29 59 42 73 94 106 33 20 71 42 85
49 136 61 162 69 231 69 29 0 76 9 104 19 96 37 133 44 200 39 56 -5 70 -3 97
16 45 31 54 80 50 276 -2 91 -2 201 0 245 4 117 2 168 -10 280 -32 307 -42
436 -46 580 -2 88 -9 201 -15 250 -6 50 -11 144 -11 210 -1 66 -6 136 -11 155
-5 20 -13 83 -19 140 -6 58 -15 134 -20 170 -6 36 -14 101 -19 145 -13 110
-30 230 -41 290 -5 28 -14 84 -20 125 -14 101 -39 217 -55 260 -8 19 -17 46
-20 58 -4 13 -20 43 -36 67 -16 24 -29 46 -29 50 0 16 -64 150 -92 193 -75
113 -124 158 -243 227 -27 17 -66 47 -86 67 -20 21 -44 38 -53 38 -10 0 -51
16 -92 35 -40 19 -83 35 -94 35 -11 0 -49 12 -83 27 -56 25 -74 27 -193 29
-72 1 -147 7 -165 13 -44 14 -187 0 -289 -29 -41 -12 -116 -33 -167 -46 -51
-12 -105 -30 -120 -37 -15 -8 -64 -26 -108 -40 -131 -43 -199 -67 -225 -81
-14 -8 -59 -28 -100 -45 -59 -25 -89 -45 -143 -99 -120 -120 -177 -181 -177
-191 0 -6 -25 -39 -55 -75 -54 -63 -77 -112 -120 -256 -16 -54 -31 -328 -27
-500 11 -496 21 -729 34 -780 8 -30 16 -71 17 -90 1 -19 9 -75 17 -125 27
-153 33 -300 24 -540 -4 -126 -5 -273 -1 -325 24 -289 135 -580 242 -636 16
-8 53 -19 82 -25 28 -6 72 -15 97 -21 25 -5 113 -13 195 -18 205 -11 249 -21
351 -74 114 -60 137 -80 181 -167 34 -67 35 -74 29 -140 -3 -39 -2 -78 3 -88
10 -18 2 -88 -19 -170 -21 -86 -113 -196 -194 -234 -89 -43 -239 -87 -293 -87
-29 0 -75 -5 -104 -11 -40 -9 -61 -8 -91 2 -37 12 -125 8 -373 -16 -118 -12
-210 -14 -555 -15 -347 0 -458 5 -613 29 -49 8 -74 8 -89 0 -37 -20 -249 20
-361 68 -20 9 -47 31 -58 49 -11 18 -38 48 -60 65 -39 31 -41 34 -34 76 6 39
4 45 -13 50 -26 6 -56 74 -48 107 4 17 0 35 -10 51 -28 43 -3 153 67 296 24
48 46 80 59 84 11 3 34 18 51 32 41 35 115 42 171 17 40 -18 40 -18 122 10 53
18 91 25 108 21 19 -5 29 -2 35 10 6 9 46 26 99 40 49 13 120 39 157 59 38 20
74 36 81 36 38 0 68 83 72 200 5 191 3 389 -6 425 -5 22 -10 62 -10 88 0 26
-6 78 -14 115 -24 116 -40 328 -43 582 -2 135 -3 261 -2 280 3 67 3 105 -1
180 -3 58 0 83 14 113 16 31 17 43 7 64 -10 22 -16 430 -11 778 0 33 -4 93
-10 133 -8 60 -7 78 5 102 11 22 12 35 5 56 -6 14 -10 47 -9 73 2 45 -10 141
-31 251 -6 30 -14 88 -19 128 -8 69 -12 75 -64 136 -42 47 -73 71 -123 95 -61
29 -75 32 -153 30 -77 -2 -86 0 -99 20 -21 30 -81 29 -111 -3 -28 -30 -89 -39
-276 -39 -136 0 -142 1 -205 31 -78 37 -103 57 -124 99 -12 24 -13 38 -6 57
13 35 4 53 -31 65 -25 9 -29 15 -29 49 0 74 40 235 64 262 13 14 27 43 31 65
9 52 49 121 83 142 15 9 37 26 50 37 13 12 42 25 65 31 31 7 43 15 45 32 2 12
14 25 30 31 37 15 165 45 177 43 6 -1 84 -3 175 -5 132 -2 171 -6 197 -19 18
-9 44 -17 59 -17 15 0 57 -20 96 -46 38 -26 98 -55 133 -66 36 -10 77 -29 92
-42 15 -13 40 -29 54 -37 56 -30 215 -142 256 -180 23 -21 51 -39 60 -39 10 0
31 -7 47 -15 36 -19 54 -19 99 0 20 8 57 15 82 15 25 0 53 4 63 9 9 5 29 14
45 20 17 7 27 18 27 31 0 37 39 64 264 182 28 15 83 37 121 49 39 11 97 30
130 41 80 26 205 56 279 68 34 5 84 14 111 20 63 13 197 29 338 40 59 4 111
10 114 14 13 13 334 6 406 -8z m-3793 -233 c0 -9 -6 -24 -14 -32 -8 -9 -26
-39 -40 -67 -25 -49 -29 -52 -103 -79 -43 -15 -83 -32 -89 -37 -14 -11 -118
-38 -144 -38 -26 0 -25 10 9 78 29 58 50 75 106 87 17 3 71 26 120 50 120 57
155 66 155 38z m-116 -380 c-4 -49 -12 -93 -18 -100 -6 -6 -29 -18 -51 -26
-186 -69 -293 -102 -301 -94 -4 4 -7 41 -7 83 1 84 19 123 64 136 95 27 149
46 184 65 26 15 57 23 88 23 l47 0 -6 -87z m65 -268 c17 -35 38 -68 46 -73 43
-23 -48 -71 -175 -92 -25 -4 -70 -15 -100 -23 -30 -8 -76 -18 -102 -22 l-46
-7 -21 47 c-37 83 -29 104 50 129 86 28 185 65 229 85 75 33 84 29 119 -44z
m3625 -151 c6 -17 -19 -54 -36 -54 -9 0 -26 -12 -190 -134 -100 -74 -129 -111
-137 -177 -1 -7 -42 -16 -126 -29 -27 -4 -76 -14 -109 -23 -32 -9 -63 -14 -67
-11 -15 9 15 43 80 90 34 25 65 52 68 60 3 8 24 24 46 36 23 11 50 31 60 44
10 13 62 54 115 91 53 37 112 79 130 95 28 24 41 28 96 28 50 0 65 -4 70 -16z
m230 -15 c16 -5 40 -9 52 -9 13 0 24 -4 24 -10 0 -15 -38 -50 -54 -50 -8 0
-31 -15 -51 -34 -63 -60 -259 -204 -301 -222 -29 -12 -134 -10 -134 3 0 12 87
105 114 123 17 10 58 38 91 60 33 22 81 52 108 66 26 13 47 28 47 34 0 5 4 20
10 35 10 27 21 27 94 4z m-3595 -20 c20 -7 31 -17 29 -26 -3 -14 -55 -35 -258
-102 -69 -22 -152 -64 -169 -85 -8 -9 -18 -16 -24 -16 -15 0 -116 84 -113 94
1 5 33 18 72 29 38 11 119 35 180 53 62 19 120 34 130 35 11 0 35 6 54 13 46
18 60 18 99 5z m774 -19 c47 -30 57 -49 35 -67 -7 -6 -49 -29 -94 -52 -108
-57 -378 -259 -382 -287 -2 -14 8 -30 34 -49 34 -26 38 -27 76 -14 41 13 68
41 68 71 0 27 78 100 155 145 147 85 166 94 188 91 19 -3 23 -12 34 -83 7 -44
16 -100 20 -125 14 -80 7 -106 -35 -125 -20 -9 -53 -24 -72 -34 -19 -11 -46
-22 -60 -26 -14 -4 -38 -18 -55 -30 -16 -12 -53 -35 -81 -51 l-52 -28 -52 57
c-64 70 -85 83 -240 147 -134 55 -135 56 -192 65 -24 4 -38 11 -38 20 0 15
153 134 226 176 21 12 62 36 89 51 28 16 68 41 91 56 22 15 56 37 75 49 19 13
39 23 46 23 6 0 35 11 65 25 68 32 93 31 151 -5z m2202 20 c8 -13 -2 -21 -258
-228 -32 -26 -75 -61 -95 -78 -64 -54 -201 -144 -255 -168 -80 -35 -158 -89
-207 -142 -52 -57 -175 -164 -188 -164 -5 0 -17 -9 -27 -20 -28 -31 -55 -26
-55 11 0 45 15 65 70 95 28 15 50 31 50 35 0 4 35 35 78 69 42 33 93 76 112
94 19 19 67 57 105 85 39 27 86 62 105 76 19 15 74 52 122 83 122 80 202 143
220 172 10 17 40 36 94 57 83 33 119 40 129 23z m-2586 -26 c-24 -29 -301
-204 -393 -249 -53 -25 -101 -55 -107 -67 -9 -17 -18 -19 -47 -15 -60 8 -132
45 -132 67 0 20 45 50 75 50 9 0 33 8 53 19 110 55 171 82 210 91 23 6 79 29
124 50 45 22 88 40 95 40 7 0 29 8 48 19 40 21 93 18 74 -5z m3470 -53 c20
-11 43 -27 50 -35 8 -9 32 -24 55 -34 22 -11 47 -26 55 -35 19 -24 4 -39 -73
-75 -34 -16 -77 -43 -96 -59 -38 -33 -115 -83 -127 -83 -5 0 -23 9 -41 20 -32
20 -32 20 -17 51 11 19 32 37 62 50 25 10 57 28 72 38 14 10 38 21 53 25 33 8
43 37 26 73 -11 22 -20 27 -42 25 -34 -4 -188 -89 -237 -131 -20 -17 -41 -31
-47 -31 -6 0 -22 -14 -34 -30 -14 -20 -30 -30 -43 -28 -28 4 -32 43 -6 57 11
6 40 28 64 49 25 20 68 51 97 67 28 17 75 46 103 67 61 42 75 45 126 19z
m-1449 -139 c-13 -9 -38 -26 -56 -37 -58 -37 -127 -90 -160 -122 -36 -35 -64
-43 -64 -18 0 20 134 155 153 155 8 0 41 13 73 30 38 19 62 26 68 20 7 -7 2
-16 -14 -28z m1732 -74 c20 -17 108 -146 108 -160 0 -6 14 -38 31 -71 29 -58
30 -62 13 -74 -10 -7 -23 -13 -30 -13 -16 0 -133 -95 -167 -136 -29 -35 -67
-46 -67 -20 0 8 -9 31 -21 51 -27 45 -19 79 24 101 17 9 42 25 55 35 12 9 40
20 62 24 66 11 92 70 45 101 -20 13 -30 14 -62 4 -21 -7 -54 -22 -73 -34 -46
-30 -128 -66 -149 -66 -32 0 -81 39 -81 64 0 38 96 112 230 178 64 32 62 32
82 16z m-3206 -350 c4 -18 7 -70 7 -115 0 -118 -21 -149 -113 -167 -14 -3 -55
-28 -90 -56 -36 -27 -73 -50 -82 -50 -19 0 -38 29 -38 58 0 11 -11 45 -25 76
-42 95 -33 125 50 163 22 10 60 30 85 45 25 15 62 30 83 33 21 4 44 16 50 26
7 11 23 19 39 19 22 0 28 -6 34 -32z m3430 -75 c4 -16 15 -56 26 -91 11 -34
17 -69 14 -78 -3 -8 -39 -30 -78 -49 -40 -18 -99 -56 -132 -85 -65 -57 -90
-61 -93 -15 -1 17 -6 43 -12 59 -10 25 -8 34 16 68 15 21 35 50 43 63 16 25
107 109 150 138 36 25 59 21 66 -10z m-3419 -319 c3 -9 2 -39 -3 -68 -6 -30
-6 -66 -1 -88 12 -50 -6 -84 -63 -122 -25 -17 -56 -41 -70 -54 -39 -37 -110
-76 -120 -66 -8 8 -32 197 -32 252 0 25 28 62 46 62 6 0 31 14 56 30 25 16 54
30 65 30 11 0 34 9 50 20 36 24 63 26 72 4z m3492 -41 c15 -76 14 -103 -3
-103 -8 0 -18 5 -21 10 -19 31 -103 -12 -175 -90 -32 -35 -42 -41 -54 -31 -25
21 -30 69 -11 111 26 57 171 160 226 160 24 0 27 -5 38 -57z m24 -147 c11 -28
29 -176 23 -191 -3 -9 -18 -15 -36 -15 -29 0 -107 -44 -173 -97 -16 -13 -32
-21 -36 -18 -16 9 -20 88 -6 116 14 26 204 219 216 219 4 0 9 -6 12 -14z
m-3519 -192 c12 -30 6 -248 -7 -274 -8 -16 -40 -39 -87 -62 -41 -20 -76 -41
-78 -47 -2 -6 -14 -11 -27 -11 -20 0 -24 5 -24 33 0 17 -3 69 -6 113 l-7 82
49 48 c48 47 161 134 174 134 4 0 10 -7 13 -16z m3574 -153 c16 -47 5 -91 -22
-91 -23 0 -105 -47 -135 -76 -39 -39 -71 -58 -80 -48 -5 5 -12 30 -15 55 -7
45 -6 46 41 90 85 79 156 123 187 115 6 -1 16 -22 24 -45z m22 -210 c11 -22
13 -71 4 -96 -4 -9 -34 -30 -68 -47 -33 -17 -74 -46 -90 -65 -37 -44 -70 -43
-74 5 -4 43 23 86 95 149 90 78 115 87 133 54z m-3590 -172 c0 -120 1 -119
-87 -163 -99 -49 -126 -27 -116 96 7 80 12 90 76 136 61 46 108 64 119 48 4
-6 8 -59 8 -117z m3613 -108 c8 -67 1 -86 -41 -107 -21 -10 -65 -38 -100 -62
-35 -24 -70 -41 -78 -38 -24 9 -16 60 15 100 66 82 166 167 187 159 6 -2 14
-26 17 -52z m-3612 -192 c12 -117 10 -219 -3 -223 -75 -20 -106 -28 -125 -33
-28 -7 -31 6 -35 141 l-3 109 70 38 c39 21 75 37 80 35 6 -1 13 -31 16 -67z
m3625 -86 c9 -89 8 -105 -9 -116 -67 -43 -180 -107 -194 -109 -16 -3 -18 5
-18 57 0 60 0 60 35 71 28 9 36 18 42 45 7 36 95 129 121 129 12 0 17 -19 23
-77z m-3614 -288 c4 -22 7 -81 7 -131 l1 -92 -51 -27 c-28 -14 -57 -24 -64
-22 -7 3 -14 39 -19 99 -3 51 -10 109 -16 127 -5 19 -6 40 -1 49 11 20 68 40
106 39 27 -2 31 -6 37 -42z m3623 -5 c0 -43 -2 -46 -46 -70 -25 -14 -68 -44
-96 -67 -28 -24 -56 -43 -62 -43 -16 0 -25 48 -13 73 15 33 92 117 127 139 16
10 44 17 60 16 28 -3 30 -5 30 -48z m19 -191 c3 -17 6 -56 6 -85 0 -52 -1 -54
-27 -54 -15 0 -57 -21 -99 -50 -81 -54 -104 -56 -104 -6 0 25 17 49 91 129 50
53 99 97 109 97 12 0 20 -10 24 -31z m-3606 -186 c6 -21 11 -63 12 -93 2 -75
2 -80 -11 -80 -6 0 -33 -11 -61 -25 -84 -42 -87 -41 -83 73 l2 97 54 32 c30
18 59 33 65 33 6 0 16 -17 22 -37z m3630 -85 c3 -36 1 -38 -55 -68 -61 -32
-76 -41 -134 -77 -48 -31 -59 -29 -59 10 0 42 8 50 27 31 23 -22 46 -13 64 25
21 44 108 121 134 118 15 -1 21 -11 23 -39z m0 -205 c-3 -48 -3 -48 -43 -54
-44 -6 -70 -18 -129 -61 -42 -30 -56 -34 -56 -17 0 16 108 117 160 149 65 41
72 39 68 -17z m-3606 -3 c2 -5 1 -33 -1 -61 -2 -40 -7 -52 -25 -58 -11 -5 -30
-18 -40 -30 -28 -31 -84 -64 -96 -56 -12 7 -13 114 -2 133 5 7 33 28 62 47 53
34 95 45 102 25z m3612 -155 c11 -44 -13 -69 -137 -139 -40 -23 -48 -25 -53
-12 -13 34 79 135 151 166 30 13 32 12 39 -15z m-3626 -116 c2 -10 -20 -31
-61 -58 -35 -22 -66 -41 -70 -41 -12 0 -8 45 6 64 15 21 86 55 107 53 8 -1 16
-9 18 -18z m3610 -92 c2 -11 -7 -21 -24 -27 -38 -15 -52 2 -24 30 23 23 43 22
48 -3z m-4518 -316 c0 -5 -7 -11 -15 -14 -8 -4 -23 -23 -34 -44 -21 -43 -49
-69 -103 -102 -48 -29 -65 -19 -39 22 41 65 191 173 191 138z m3650 -260 c0
-78 -15 -116 -55 -141 -18 -11 -45 -36 -59 -55 -29 -38 -80 -70 -96 -60 -6 3
-10 36 -10 73 0 78 15 108 62 120 24 6 34 16 40 39 6 21 23 41 54 62 26 17 51
28 55 25 5 -3 9 -31 9 -63z m-3740 -28 c0 -44 -4 -50 -52 -95 -76 -70 -118
-76 -118 -18 0 16 4 40 10 54 10 26 137 119 152 110 4 -3 8 -26 8 -51z m14
-205 c3 -13 6 -26 6 -30 0 -11 -127 -138 -138 -138 -6 0 -13 14 -17 31 -8 34
5 52 80 121 47 43 60 47 69 16z m3746 -48 c16 -30 5 -48 -71 -117 -52 -48 -75
-63 -99 -63 -26 0 -30 4 -30 26 0 44 128 174 171 174 10 0 23 -9 29 -20z
m-3665 -147 c19 -21 35 -44 35 -52 0 -14 -157 -171 -172 -171 -8 0 -32 42 -48
85 -8 22 -5 31 30 66 22 23 40 45 40 49 0 4 13 13 29 20 16 6 32 18 35 26 8
20 12 18 51 -23z m3789 -62 c56 -57 54 -70 -14 -111 -23 -14 -54 -36 -68 -49
-43 -37 -111 -74 -127 -67 -8 3 -15 14 -15 23 0 10 -7 29 -16 41 -18 27 -12
51 24 93 29 35 140 119 157 119 6 0 32 -22 59 -49z m-894 2 c0 -55 -12 -70
-44 -55 -33 15 -33 29 1 64 35 37 43 35 43 -9z m-2712 -99 c12 -8 22 -21 22
-28 0 -17 -90 -101 -116 -110 -11 -3 -37 -26 -57 -51 -41 -48 -60 -54 -95 -29
-48 33 -12 95 106 184 70 53 102 61 140 34z m2510 2 c-3 -16 -112 -136 -263
-290 -105 -107 -147 -131 -209 -119 -34 7 -33 15 3 36 17 10 32 26 36 36 7 22
100 106 193 174 104 76 122 94 122 120 0 32 16 45 65 50 22 2 44 4 48 5 5 1 7
-4 5 -12z m1301 -48 c60 -21 68 -48 19 -66 -30 -10 -66 -36 -164 -116 -34 -28
-107 -36 -145 -16 -29 16 -23 34 24 76 143 128 189 149 266 122z m-3590 -58
c-57 -42 -129 -124 -129 -145 0 -30 19 -45 57 -45 28 0 44 12 106 74 79 81
190 156 230 156 14 0 37 -4 51 -9 38 -15 23 -42 -62 -109 -120 -95 -148 -124
-156 -165 -8 -42 -14 -44 -96 -22 -30 8 -86 15 -123 15 -44 0 -85 7 -115 19
-26 11 -55 22 -64 25 -10 3 -18 9 -18 14 0 4 36 41 79 80 95 86 264 182 270
154 2 -10 -10 -27 -30 -42z m1721 45 c0 -8 -32 -40 -72 -72 -39 -32 -92 -75
-117 -95 -25 -21 -69 -55 -96 -76 -60 -47 -115 -107 -115 -127 0 -9 -18 -15
-57 -20 -32 -3 -77 -8 -100 -11 -23 -3 -44 -1 -47 5 -18 28 113 176 211 237
32 20 87 65 123 100 72 70 49 63 233 72 27 1 37 -2 37 -13z m710 -5 c0 -10
-16 -32 -36 -47 -21 -15 -54 -43 -76 -62 -83 -72 -50 3 36 81 55 51 76 59 76
28z m-446 3 c10 -10 -220 -230 -265 -253 -33 -17 -58 -45 -84 -94 -22 -42
-155 -56 -155 -16 0 21 157 175 190 185 13 4 33 18 43 32 10 13 31 30 47 38
15 8 34 20 42 27 52 50 115 88 143 88 17 0 35 -3 39 -7z m-1356 -19 c37 -10
25 -36 -50 -104 -40 -36 -91 -81 -113 -101 -22 -20 -54 -43 -71 -52 -17 -9
-39 -28 -48 -42 -16 -25 -20 -26 -74 -19 -31 3 -61 10 -65 14 -12 10 60 97
135 162 35 32 93 71 128 89 35 17 70 38 78 45 14 15 43 18 80 8z m340 -4 c26
-1 26 -1 7 -15 -37 -26 -108 -90 -169 -150 -77 -76 -214 -199 -226 -203 -6 -2
-32 4 -60 13 -64 21 -66 43 -7 84 23 16 56 43 72 61 17 17 67 59 112 91 45 33
92 73 103 89 17 24 29 30 68 33 26 2 53 2 60 0 8 -2 26 -3 40 -3z m336 1 c16
-6 4 -21 -84 -99 -57 -51 -124 -102 -149 -114 -51 -24 -90 -63 -91 -91 0 -11
9 -32 20 -47 11 -16 17 -31 13 -33 -5 -2 -66 -4 -138 -3 -122 1 -130 2 -133
21 -2 14 12 32 48 59 28 21 56 46 63 55 7 10 35 35 64 57 28 21 94 74 146 116
88 71 99 77 149 81 29 2 58 4 63 4 6 1 19 -2 29 -6z m2663 -17 c2 -6 -20 -29
-48 -50 -216 -161 -212 -159 -292 -157 -108 3 -112 29 -14 87 34 20 88 56 120
79 50 36 68 43 125 48 86 8 105 7 109 -7z m277 -12 c-76 -65 -117 -94 -160
-113 -46 -21 -74 -61 -74 -109 0 -18 -5 -19 -62 -14 -78 7 -88 10 -88 26 0 20
165 145 242 184 36 18 69 38 73 44 3 5 27 10 53 10 l47 -1 -31 -27z m1601 6
c-10 -30 -43 -87 -69 -116 -23 -27 -87 -62 -111 -62 -30 0 -13 26 72 112 89
89 121 108 108 66z m-1262 -9 c15 -7 26 -17 24 -23 -2 -6 -27 -24 -56 -40 -29
-15 -87 -61 -129 -102 l-76 -73 -103 -5 c-90 -5 -105 -4 -110 11 -4 11 5 25
28 45 39 33 241 183 267 197 22 13 120 7 155 -10z m921 8 c28 -21 13 -49 -67
-122 -92 -85 -116 -97 -196 -99 -87 -1 -88 18 -3 60 65 32 116 68 167 120 28
28 63 53 76 54 3 0 13 -6 23 -13z m-620 -27 c14 -5 26 -14 26 -20 0 -18 -62
-71 -108 -92 -29 -13 -48 -30 -59 -53 -23 -47 -77 -75 -149 -75 -95 0 -98 10
-29 80 33 33 68 60 78 60 22 0 76 27 146 74 59 40 59 40 95 26z m326 -24 c0
-16 -32 -40 -93 -71 -50 -26 -117 -83 -117 -100 0 -7 -7 -16 -16 -19 -25 -10
-134 -7 -134 4 0 19 89 90 229 182 33 23 131 25 131 4z"/>
</g>
</svg>
